<?xml version="1.0" encoding="UTF-8"?>
<!DOCTYPE svg PUBLIC "-//W3C//DTD SVG 1.1//EN" "http://www.w3.org/Graphics/SVG/1.1/DTD/svg11.dtd">
<svg xmlns="http://www.w3.org/2000/svg" version="1.1" width="1350px" height="1231px" style="shape-rendering:geometricPrecision; text-rendering:geometricPrecision; image-rendering:optimizeQuality; fill-rule:evenodd; clip-rule:evenodd" xmlns:xlink="http://www.w3.org/1999/xlink">
<g><path style="opacity:0.978" fill="#2e2e2e" d="M 651.5,-0.5 C 674.5,-0.5 697.5,-0.5 720.5,-0.5C 770.305,1.3469 819.972,6.18023 869.5,14C 968.157,30.423 1058.49,66.7563 1140.5,123C 1258.9,210.892 1326.4,328.726 1343,476.5C 1344.85,501.346 1347.02,526.013 1349.5,550.5C 1349.5,572.167 1349.5,593.833 1349.5,615.5C 1342.95,722.644 1309.79,820.644 1250,909.5C 1218.46,954.709 1179.96,992.876 1134.5,1024C 1148.6,1068.64 1162.1,1113.47 1175,1158.5C 1176.06,1165.29 1175.23,1171.79 1172.5,1178C 1177.17,1188.69 1179.01,1199.86 1178,1211.5C 1175.46,1222.05 1168.79,1227.38 1158,1227.5C 1145.22,1226.13 1133.39,1221.96 1122.5,1215C 1099.49,1200.5 1076.82,1185.5 1054.5,1170C 1020.35,1144.09 986.012,1118.42 951.5,1093C 949.167,1092.33 946.833,1092.33 944.5,1093C 819.763,1121.91 693.43,1134.24 565.5,1130C 485.469,1127.06 407.802,1112.06 332.5,1085C 201.895,1034.06 108.062,944.562 51,816.5C 34.0868,772.521 20.4201,727.521 10,681.5C 5.00886,656.222 1.50886,630.889 -0.5,605.5C -0.5,583.5 -0.5,561.5 -0.5,539.5C 7.62491,425.312 45.4582,322.312 113,230.5C 172.479,155.38 246.646,99.5469 335.5,63C 415.115,30.7416 497.782,11.075 583.5,4C 606.302,2.1608 628.969,0.660802 651.5,-0.5 Z"/></g>
<g><path style="opacity:1" fill="#4cab82" d="M 653.5,7.5 C 732.436,6.23686 810.77,12.4035 888.5,26C 977.86,43.4331 1059.86,77.7665 1134.5,129C 1251.72,215.86 1318.55,332.36 1335,478.5C 1347.64,603.638 1323.31,720.971 1262,830.5C 1228.06,889.785 1182.89,938.952 1126.5,978C 1118.03,986.459 1116.19,996.292 1121,1007.5C 1136,1056.5 1151,1105.5 1166,1154.5C 1169.35,1180.14 1158.85,1188.31 1134.5,1179C 1109.11,1165.59 1084.77,1150.59 1061.5,1134C 1025.81,1107.82 990.475,1081.15 955.5,1054C 949.804,1048.77 943.137,1046.77 935.5,1048C 829.276,1072.57 721.609,1085.4 612.5,1086.5C 535.257,1087.32 459.257,1078.15 384.5,1059C 232.288,1018.1 121.788,926.931 53,785.5C 3.32394,670.35 -5.67606,552.017 26,430.5C 72.2053,260.24 176.372,140.406 338.5,71C 411.384,41.1957 487.05,22.1957 565.5,14C 594.959,11.4307 624.292,9.26408 653.5,7.5 Z"/></g>
<g><path style="opacity:1" fill="#f1f1d8" d="M 598.5,15.5 C 609.246,19.3698 619.913,23.5365 630.5,28C 651.064,39.4487 672.064,50.1154 693.5,60C 706.641,69.0978 709.807,80.9311 703,95.5C 692.95,114.514 677.117,125.348 655.5,128C 629.572,130.768 605.239,125.768 582.5,113C 562.351,100.202 541.685,88.2016 520.5,77C 512.167,70.6667 503.833,64.3333 495.5,58C 482.034,54.4626 476.534,59.6293 479,73.5C 489.607,102.656 500.607,131.656 512,160.5C 524.501,188.197 540.501,213.53 560,236.5C 581.373,260.204 602.373,284.204 623,308.5C 654.014,339.191 686.514,368.024 720.5,395C 730.945,403.434 739.112,413.6 745,425.5C 748.896,442.479 743.73,455.979 729.5,466C 717.526,470.63 705.526,470.63 693.5,466C 657.677,445.585 621.344,425.919 584.5,407C 579.031,403.697 573.698,400.197 568.5,396.5C 560.643,402.858 552.643,409.025 544.5,415C 537.292,419.033 529.958,419.367 522.5,416C 512.175,410.84 502.175,405.173 492.5,399C 490.167,398.333 487.833,398.333 485.5,399C 479.167,401.333 472.833,403.667 466.5,406C 463.167,406.667 459.833,406.667 456.5,406C 445.502,402.111 434.836,397.444 424.5,392C 412.332,384.415 399.999,377.082 387.5,370C 361.327,360.609 334.993,351.609 308.5,343C 289.821,334.218 270.488,327.218 250.5,322C 243.763,318.598 238.263,313.765 234,307.5C 222.758,281.015 210.425,255.015 197,229.5C 196.333,225.833 197.667,224.833 201,226.5C 214.425,252.015 226.758,278.015 238,304.5C 241.167,309 245,312.833 249.5,316C 260.715,319.972 272.049,323.638 283.5,327C 309.396,338.742 336.063,348.075 363.5,355C 345.353,346.095 327.686,336.429 310.5,326C 301.954,317.922 292.954,310.589 283.5,304C 283.667,302.5 284.5,301.667 286,301.5C 290.08,303.25 293.913,305.417 297.5,308C 304.614,315.049 312.281,321.383 320.5,327C 352.299,342.057 382.632,359.391 411.5,379C 421.85,385.176 432.516,390.843 443.5,396C 449.026,398.842 454.86,400.676 461,401.5C 469.143,400.008 476.976,397.508 484.5,394C 466.675,379.174 448.009,365.508 428.5,353C 405.085,341.752 381.418,331.085 357.5,321C 348.384,317.198 340.884,311.365 335,303.5C 332.591,299.108 331.091,294.442 330.5,289.5C 332.144,289.286 333.644,289.62 335,290.5C 337.916,299.737 343.416,306.904 351.5,312C 379.003,324.28 406.336,336.946 433.5,350C 454.062,363.894 474.062,378.561 493.5,394C 504.052,400.777 515.052,406.777 526.5,412C 533.757,413.509 540.423,412.175 546.5,408C 552.208,402.623 558.208,397.623 564.5,393C 545.5,373.333 526.5,353.667 507.5,334C 487.392,317.728 467.725,300.895 448.5,283.5C 447.096,281.453 447.429,279.786 449.5,278.5C 470.353,296.521 491.353,314.354 512.5,332C 528.533,348.365 544.2,365.032 559.5,382C 567.212,388.714 575.212,395.047 583.5,401C 616.143,417.652 648.143,435.318 679.5,454C 688.302,459.045 697.636,462.711 707.5,465C 727.659,465.849 738.993,456.183 741.5,436C 740.94,427.382 737.773,419.882 732,413.5C 727.167,408.667 722.333,403.833 717.5,399C 683.18,371.69 650.346,342.523 619,311.5C 600.411,288.907 581.078,266.907 561,245.5C 538.998,220.185 520.998,192.185 507,161.5C 495.41,132.399 484.41,103.066 474,73.5C 471.489,58.0152 477.989,50.8485 493.5,52C 497.112,53.1395 500.446,54.8061 503.5,57C 511.655,64.8234 520.655,71.4901 530.5,77C 549.991,87.2423 568.991,98.2423 587.5,110C 607.291,120.267 628.291,124.934 650.5,124C 668.873,122.567 683.706,114.734 695,100.5C 700.675,92.5109 702.341,83.8443 700,74.5C 697.886,70.052 694.719,66.552 690.5,64C 675.063,57.1149 660.063,49.4483 645.5,41C 630.188,33.1766 614.521,26.1766 598.5,20C 597.587,18.5861 597.587,17.0861 598.5,15.5 Z"/></g>
<g><path style="opacity:1" fill="#eff1d8" d="M 656.5,53.5 C 658.635,53.147 659.968,53.9803 660.5,56C 657.977,66.9771 654.977,77.8104 651.5,88.5C 657.93,97.2059 666.597,100.706 677.5,99C 685.475,95.0253 691.475,89.0253 695.5,81C 698.667,80.1667 699.833,81.3333 699,84.5C 694.419,93.4154 687.586,99.9154 678.5,104C 665.341,106.331 654.841,102.165 647,91.5C 646.333,89.5 646.333,87.5 647,85.5C 650.232,74.8257 653.399,64.159 656.5,53.5 Z"/></g>
<g><path style="opacity:1" fill="#f7f4dc" d="M 857.5,326.5 C 859.144,326.286 860.644,326.62 862,327.5C 863.66,347.995 872.494,364.495 888.5,377C 894.804,381.313 901.804,383.647 909.5,384C 911.527,385.396 911.86,387.062 910.5,389C 893.149,390.92 879.649,399.087 870,413.5C 864.922,421.657 860.922,430.324 858,439.5C 856.667,440.833 855.333,440.833 854,439.5C 851.608,423.121 844.108,409.621 831.5,399C 823.634,393.571 815.634,388.404 807.5,383.5C 807.977,382.522 808.643,381.689 809.5,381C 822.903,380.547 834.07,375.38 843,365.5C 848.528,352.747 853.362,339.747 857.5,326.5 Z"/></g>
<g><path style="opacity:1" fill="#f0f1d8" d="M 718.5,427.5 C 727.739,427.56 733.239,432.227 735,441.5C 735.769,444.099 735.602,446.599 734.5,449C 733.216,449.684 732.049,449.517 731,448.5C 729.907,431.2 722.74,428.034 709.5,439C 704.167,444 698.833,449 693.5,454C 691.888,454.72 690.388,454.554 689,453.5C 688.333,452.833 688.333,452.167 689,451.5C 697.862,442.121 707.695,434.121 718.5,427.5 Z"/></g>
<g><path style="opacity:1" fill="#f0f1d8" d="M 785.5,497.5 C 799.8,496.212 812.8,499.712 824.5,508C 861.082,535.966 898.082,562.966 935.5,589C 943.638,582.874 952.304,577.54 961.5,573C 969.373,571.501 976.706,572.834 983.5,577C 992.527,583.182 1001.19,589.849 1009.5,597C 1013.17,597.667 1016.83,597.667 1020.5,597C 1029.72,592.898 1039.05,592.564 1048.5,596C 1057.5,600.832 1066.17,606.165 1074.5,612C 1086.83,621.667 1099.17,631.333 1111.5,641C 1137.68,654.256 1164.01,667.256 1190.5,680C 1206.95,690.561 1224.29,699.561 1242.5,707C 1248.53,711.692 1253.03,717.525 1256,724.5C 1259.97,736.396 1263.64,748.396 1267,760.5C 1271.36,771.255 1275.53,782.088 1279.5,793C 1278.71,794.626 1277.71,796.126 1276.5,797.5C 1266.32,774.143 1257.82,750.143 1251,725.5C 1248.31,719.803 1244.48,714.97 1239.5,711C 1221.29,703.561 1203.95,694.561 1187.5,684C 1169.62,674.895 1151.62,666.061 1133.5,657.5C 1132.3,657.846 1132.3,658.346 1133.5,659C 1148.01,668.754 1162.34,678.754 1176.5,689C 1185.33,699.167 1194.83,708.667 1205,717.5C 1205.44,721.534 1203.94,722.367 1200.5,720C 1190.5,711.333 1181.17,702 1172.5,692C 1153.99,679.246 1135.66,666.246 1117.5,653C 1095.86,633.354 1072.53,616.021 1047.5,601C 1042.7,598.8 1037.7,598.133 1032.5,599C 1027.09,600.02 1021.75,601.353 1016.5,603C 1032.59,620.098 1049.59,636.098 1067.5,651C 1092.17,666.333 1116.83,681.667 1141.5,697C 1150.68,704.007 1156.34,713.174 1158.5,724.5C 1158.25,727.082 1156.92,727.915 1154.5,727C 1151.78,714.557 1145.12,704.89 1134.5,698C 1109,683.084 1084,667.417 1059.5,651C 1040.2,633.366 1021.2,615.366 1002.5,597C 993.513,590.172 984.179,583.838 974.5,578C 969.743,577.19 965.076,577.524 960.5,579C 952.321,583.253 944.654,588.253 937.5,594C 954.667,616.5 971.833,639 989,661.5C 1005.33,679.167 1021.67,696.833 1038,714.5C 1039.4,716.394 1040.57,718.394 1041.5,720.5C 1041.47,722.704 1040.47,723.538 1038.5,723C 1021.04,703.2 1003.2,683.7 985,664.5C 970.563,646.731 956.896,628.398 944,609.5C 937.237,600.733 929.737,592.567 921.5,585C 891.657,564.825 862.657,543.491 834.5,521C 825.41,513.787 815.41,508.12 804.5,504C 785.229,499.385 772.729,506.551 767,525.5C 766.475,534.065 768.475,542.065 773,549.5C 777,554.833 781,560.167 785,565.5C 811.739,593.569 837.739,622.235 863,651.5C 889.494,689.153 915.494,727.153 941,765.5C 956.361,791.902 968.027,819.902 976,849.5C 981.469,873.326 987.469,896.992 994,920.5C 995.281,927.591 994.281,934.258 991,940.5C 986.302,944.717 980.802,946.217 974.5,945C 970.325,943.416 966.659,941.082 963.5,938C 958.533,932.031 953.199,926.365 947.5,921C 925.807,905.151 904.473,888.818 883.5,872C 868.828,862.331 852.828,855.998 835.5,853C 816.234,849.152 798.901,853.152 783.5,865C 775.099,872.298 770.932,881.464 771,892.5C 773.209,900.049 777.709,905.882 784.5,910C 798.687,918.592 812.354,927.925 825.5,938C 841.666,948.251 858,958.251 874.5,968C 883.364,976.53 891.864,985.363 900,994.5C 900.49,995.793 900.657,997.127 900.5,998.5C 899.127,998.657 897.793,998.49 896.5,998C 887.5,987.667 877.833,978 867.5,969C 846.643,958.078 826.977,945.412 808.5,931C 795.168,923.333 782.668,914.499 771,904.5C 764.506,892.414 765.173,880.748 773,869.5C 782.9,856.461 796.066,848.961 812.5,847C 838.196,845.674 861.863,852.008 883.5,866C 904.476,882.487 925.809,898.487 947.5,914C 955.14,921.64 962.806,929.306 970.5,937C 982.306,943.43 988.639,939.93 989.5,926.5C 982.973,898.753 976.139,871.086 969,843.5C 961.347,817.195 950.68,792.195 937,768.5C 911.581,730.66 885.914,692.993 860,655.5C 834.072,625.568 807.405,596.235 780,567.5C 771.406,558.314 765.406,547.647 762,535.5C 761.044,517.309 768.877,504.642 785.5,497.5 Z"/></g>
<g><path style="opacity:1" fill="#f1f2d9" d="M 774.5,515.5 C 775.822,515.33 776.989,515.663 778,516.5C 777.485,533.361 784.318,537.528 798.5,529C 804.5,524.667 810.5,520.333 816.5,516C 817.793,515.51 819.127,515.343 820.5,515.5C 820.822,517.722 820.155,519.556 818.5,521C 810.435,526.728 802.101,532.061 793.5,537C 787.047,539.893 781.547,538.726 777,533.5C 774.519,527.629 773.685,521.629 774.5,515.5 Z"/></g>
<g><path style="opacity:1" fill="#131413" d="M 258.5,715.5 C 282.775,715.95 293.275,728.283 290,752.5C 285.374,768.236 274.874,775.069 258.5,773C 251.142,771.91 245.309,768.41 241,762.5C 231.933,746.497 234.1,732.33 247.5,720C 251.157,718.178 254.824,716.678 258.5,715.5 Z"/></g>
<g><path style="opacity:1" fill="#131413" d="M 496.5,715.5 C 520.775,715.95 531.275,728.283 528,752.5C 523.374,768.236 512.874,775.069 496.5,773C 489.142,771.91 483.309,768.41 479,762.5C 469.933,746.497 472.1,732.33 485.5,720C 489.157,718.178 492.824,716.678 496.5,715.5 Z"/></g>
<g><path style="opacity:1" fill="#121413" d="M 667.5,715.5 C 673.62,715.026 679.453,716.026 685,718.5C 686.789,716.771 688.956,716.104 691.5,716.5C 691.5,723.5 691.5,730.5 691.5,737.5C 689.833,737.5 688.167,737.5 686.5,737.5C 685.775,727.962 680.941,721.962 672,719.5C 663.734,721.1 658.734,726.1 657,734.5C 654.002,746.731 656.835,757.231 665.5,766C 676.854,770.657 684.521,767.157 688.5,755.5C 691.757,755.174 693.257,756.507 693,759.5C 688.813,768.936 681.48,773.603 671,773.5C 653.941,771.771 645.108,762.271 644.5,745C 645.036,729.327 652.702,719.494 667.5,715.5 Z"/></g>
<g><path style="opacity:1" fill="#121413" d="M 713.5,715.5 C 718.984,715.014 724.15,716.014 729,718.5C 730.789,716.771 732.956,716.104 735.5,716.5C 735.5,722.833 735.5,729.167 735.5,735.5C 733.833,735.5 732.167,735.5 730.5,735.5C 729.813,728.627 726.48,723.46 720.5,720C 711.783,719.051 708.283,722.884 710,731.5C 710.465,732.931 711.299,734.097 712.5,735C 719.083,738.194 725.75,741.194 732.5,744C 740.464,752.917 740.131,761.584 731.5,770C 722.94,774.488 714.273,774.654 705.5,770.5C 703.477,772.173 701.144,772.84 698.5,772.5C 698.5,765.833 698.5,759.167 698.5,752.5C 700.199,752.34 701.866,752.506 703.5,753C 705.252,760.077 709.252,765.41 715.5,769C 726.593,769.991 730.427,765.158 727,754.5C 725.833,753.333 724.667,752.167 723.5,751C 717.833,748.667 712.167,746.333 706.5,744C 700.777,739.16 698.943,732.993 701,725.5C 703.432,719.882 707.599,716.549 713.5,715.5 Z"/></g>
<g><path style="opacity:1" fill="#121212" d="M 182.5,716.5 C 199.167,716.5 215.833,716.5 232.5,716.5C 232.5,721.833 232.5,727.167 232.5,732.5C 230.833,732.5 229.167,732.5 227.5,732.5C 225.994,723.983 220.994,719.983 212.5,720.5C 212.333,735.504 212.5,750.504 213,765.5C 215.305,767.93 218.138,768.93 221.5,768.5C 221.5,769.833 221.5,771.167 221.5,772.5C 212.167,772.5 202.833,772.5 193.5,772.5C 193.5,771.167 193.5,769.833 193.5,768.5C 196.97,769.125 199.804,768.125 202,765.5C 202.5,750.504 202.667,735.504 202.5,720.5C 199.813,720.336 197.146,720.503 194.5,721C 190.855,723.958 188.188,727.625 186.5,732C 185.207,732.49 183.873,732.657 182.5,732.5C 182.5,727.167 182.5,721.833 182.5,716.5 Z"/></g>
<g><path style="opacity:1" fill="#131514" d="M 316.5,724.5 C 315.183,730.346 315.183,736.346 316.5,742.5C 317.107,742.376 317.44,742.043 317.5,741.5C 322.802,737.03 327.636,732.03 332,726.5C 334.639,722.242 333.472,720.242 328.5,720.5C 328.5,719.167 328.5,717.833 328.5,716.5C 335.833,716.5 343.167,716.5 350.5,716.5C 350.5,717.833 350.5,719.167 350.5,720.5C 348.073,720.523 345.74,721.023 343.5,722C 337.487,728.678 331.487,735.345 325.5,742C 332.448,750.618 339.781,758.952 347.5,767C 349.677,768.202 352.011,768.702 354.5,768.5C 354.5,769.833 354.5,771.167 354.5,772.5C 348.491,772.666 342.491,772.499 336.5,772C 330.753,764.005 324.419,756.505 317.5,749.5C 317.44,748.957 317.107,748.624 316.5,748.5C 315.184,754.32 315.184,759.987 316.5,765.5C 318.176,767.834 320.509,768.834 323.5,768.5C 323.5,769.833 323.5,771.167 323.5,772.5C 315.167,772.5 306.833,772.5 298.5,772.5C 298.5,771.167 298.5,769.833 298.5,768.5C 301.044,768.896 303.211,768.229 305,766.5C 305.667,751.833 305.667,737.167 305,722.5C 303.103,720.984 300.936,720.317 298.5,720.5C 298.5,719.167 298.5,717.833 298.5,716.5C 306.833,716.5 315.167,716.5 323.5,716.5C 323.5,717.833 323.5,719.167 323.5,720.5C 319.998,720.076 317.665,721.41 316.5,724.5 Z"/></g>
<g><path style="opacity:1" fill="#141615" d="M 356.5,716.5 C 371.167,716.5 385.833,716.5 400.5,716.5C 400.5,721.167 400.5,725.833 400.5,730.5C 398.833,730.5 397.167,730.5 395.5,730.5C 394.764,726.209 392.431,723.042 388.5,721C 383.845,720.501 379.179,720.334 374.5,720.5C 374.5,727.5 374.5,734.5 374.5,741.5C 382.475,743.503 386.809,740.503 387.5,732.5C 389.167,732.5 390.833,732.5 392.5,732.5C 392.5,739.833 392.5,747.167 392.5,754.5C 390.833,754.5 389.167,754.5 387.5,754.5C 386.809,746.497 382.475,743.497 374.5,745.5C 374.334,752.508 374.5,759.508 375,766.5C 375.5,767 376,767.5 376.5,768C 388.64,771.931 396.64,767.931 400.5,756C 401.793,755.51 403.127,755.343 404.5,755.5C 404.5,761.167 404.5,766.833 404.5,772.5C 388.5,772.5 372.5,772.5 356.5,772.5C 356.5,771.167 356.5,769.833 356.5,768.5C 359.044,768.896 361.211,768.229 363,766.5C 363.667,751.833 363.667,737.167 363,722.5C 361.103,720.984 358.936,720.317 356.5,720.5C 356.5,719.167 356.5,717.833 356.5,716.5 Z"/></g>
<g><path style="opacity:1" fill="#121312" d="M 407.5,716.5 C 413.509,716.334 419.509,716.501 425.5,717C 435,729.833 444.5,742.667 454,755.5C 454.667,745.5 454.667,735.5 454,725.5C 451.961,721.864 448.794,720.198 444.5,720.5C 444.5,719.167 444.5,717.833 444.5,716.5C 452.833,716.5 461.167,716.5 469.5,716.5C 469.5,717.833 469.5,719.167 469.5,720.5C 465.79,720.225 462.957,721.558 461,724.5C 460.5,740.83 460.333,757.163 460.5,773.5C 458.208,773.756 456.041,773.423 454,772.5C 444.244,758.656 434.244,744.989 424,731.5C 423.333,742.167 423.333,752.833 424,763.5C 426.039,767.136 429.206,768.802 433.5,768.5C 433.5,769.833 433.5,771.167 433.5,772.5C 425.167,772.5 416.833,772.5 408.5,772.5C 408.5,771.167 408.5,769.833 408.5,768.5C 411.939,768.411 414.772,767.078 417,764.5C 417.667,751.833 417.667,739.167 417,726.5C 415.188,722.392 412.021,720.392 407.5,720.5C 407.5,719.167 407.5,717.833 407.5,716.5 Z"/></g>
<g><path style="opacity:1" fill="#121313" d="M 585.5,765.5 C 586.66,753.674 586.826,741.674 586,729.5C 584.961,730.244 584.461,731.244 584.5,732.5C 579.243,745.098 574.077,757.764 569,770.5C 567.644,771.38 566.144,771.714 564.5,771.5C 559.443,757.164 554.276,742.831 549,728.5C 548.333,740.167 548.333,751.833 549,763.5C 550.734,766.922 553.567,768.589 557.5,768.5C 557.5,769.833 557.5,771.167 557.5,772.5C 549.5,772.5 541.5,772.5 533.5,772.5C 533.5,771.167 533.5,769.833 533.5,768.5C 537.025,768.654 539.859,767.321 542,764.5C 542.667,751.167 542.667,737.833 542,724.5C 539.859,721.679 537.025,720.346 533.5,720.5C 533.5,719.167 533.5,717.833 533.5,716.5C 540.755,716.187 547.921,716.52 555,717.5C 559.836,729.838 564.67,742.172 569.5,754.5C 575.169,742.155 579.836,729.488 583.5,716.5C 590.5,716.5 597.5,716.5 604.5,716.5C 604.5,717.833 604.5,719.167 604.5,720.5C 601.728,720.22 599.228,720.887 597,722.5C 596.333,737.167 596.333,751.833 597,766.5C 599.228,768.113 601.728,768.78 604.5,768.5C 604.5,769.833 604.5,771.167 604.5,772.5C 595.5,772.5 586.5,772.5 577.5,772.5C 577.5,771.167 577.5,769.833 577.5,768.5C 580.942,769.172 583.609,768.172 585.5,765.5 Z"/></g>
<g><path style="opacity:1" fill="#121212" d="M 611.5,716.5 C 620.5,716.5 629.5,716.5 638.5,716.5C 638.5,717.833 638.5,719.167 638.5,720.5C 635.728,720.22 633.228,720.887 631,722.5C 630.333,737.167 630.333,751.833 631,766.5C 633.228,768.113 635.728,768.78 638.5,768.5C 638.5,769.833 638.5,771.167 638.5,772.5C 629.5,772.5 620.5,772.5 611.5,772.5C 611.5,771.167 611.5,769.833 611.5,768.5C 615.013,769.124 617.847,768.124 620,765.5C 620.667,751.5 620.667,737.5 620,723.5C 617.581,721.415 614.747,720.415 611.5,720.5C 611.5,719.167 611.5,717.833 611.5,716.5 Z"/></g>
<g><path style="opacity:1" fill="#4aa980" d="M 259.5,719.5 C 270.588,719.077 277.088,724.41 279,735.5C 279.848,742.899 279.515,750.233 278,757.5C 271.838,770.93 263.172,772.93 252,763.5C 247.265,753.218 246.265,742.551 249,731.5C 250.963,726.044 254.463,722.044 259.5,719.5 Z"/></g>
<g><path style="opacity:1" fill="#4aa980" d="M 497.5,719.5 C 508.588,719.077 515.088,724.41 517,735.5C 517.848,742.899 517.515,750.233 516,757.5C 509.838,770.93 501.172,772.93 490,763.5C 485.265,753.218 484.265,742.551 487,731.5C 488.963,726.044 492.463,722.044 497.5,719.5 Z"/></g>
<g><path style="opacity:1" fill="#1c3329" d="M 316.5,724.5 C 316.178,730.358 316.511,736.025 317.5,741.5C 317.44,742.043 317.107,742.376 316.5,742.5C 315.183,736.346 315.183,730.346 316.5,724.5 Z"/></g>
<g><path style="opacity:1" fill="#387b5e" d="M 585.5,765.5 C 585.828,754.321 585.495,743.321 584.5,732.5C 584.461,731.244 584.961,730.244 586,729.5C 586.826,741.674 586.66,753.674 585.5,765.5 Z"/></g>
<g><path style="opacity:1" fill="#1c3329" d="M 317.5,749.5 C 316.512,754.64 316.179,759.974 316.5,765.5C 315.184,759.987 315.184,754.32 316.5,748.5C 317.107,748.624 317.44,748.957 317.5,749.5 Z"/></g>
<g><path style="opacity:1" fill="#f2f2d9" d="M 793.5,867.5 C 807.041,866.854 817.541,872.187 825,883.5C 825.667,885.5 825.667,887.5 825,889.5C 820.634,899.603 816.467,909.77 812.5,920C 810.393,920.854 809.059,920.188 808.5,918C 812.011,907.299 816.011,896.799 820.5,886.5C 814.724,876.445 806.057,871.945 794.5,873C 787.164,875.833 781.497,880.666 777.5,887.5C 775.453,888.904 773.786,888.571 772.5,886.5C 777.351,877.643 784.351,871.309 793.5,867.5 Z"/></g>
</svg>
