<?xml version="1.0" encoding="UTF-8"?>
<!DOCTYPE svg PUBLIC "-//W3C//DTD SVG 1.1//EN" "http://www.w3.org/Graphics/SVG/1.1/DTD/svg11.dtd">
<svg xmlns="http://www.w3.org/2000/svg" version="1.1" width="1350px" height="1231px" style="shape-rendering:geometricPrecision; text-rendering:geometricPrecision; image-rendering:optimizeQuality; fill-rule:evenodd; clip-rule:evenodd" xmlns:xlink="http://www.w3.org/1999/xlink">
<g><path style="opacity:0.978" fill="#2e2e2e" d="M 651.5,-0.5 C 674.5,-0.5 697.5,-0.5 720.5,-0.5C 770.305,1.3469 819.972,6.18023 869.5,14C 968.157,30.423 1058.49,66.7563 1140.5,123C 1258.9,210.892 1326.4,328.726 1343,476.5C 1344.85,501.346 1347.02,526.013 1349.5,550.5C 1349.5,572.167 1349.5,593.833 1349.5,615.5C 1342.95,722.644 1309.79,820.644 1250,909.5C 1218.46,954.709 1179.96,992.876 1134.5,1024C 1148.6,1068.64 1162.1,1113.47 1175,1158.5C 1176.06,1165.29 1175.23,1171.79 1172.5,1178C 1177.17,1188.69 1179.01,1199.86 1178,1211.5C 1175.46,1222.05 1168.79,1227.38 1158,1227.5C 1145.22,1226.13 1133.39,1221.96 1122.5,1215C 1099.49,1200.5 1076.82,1185.5 1054.5,1170C 1020.35,1144.09 986.012,1118.42 951.5,1093C 949.167,1092.33 946.833,1092.33 944.5,1093C 819.763,1121.91 693.43,1134.24 565.5,1130C 485.469,1127.06 407.802,1112.06 332.5,1085C 201.895,1034.06 108.062,944.562 51,816.5C 34.0868,772.521 20.4201,727.521 10,681.5C 5.00886,656.222 1.50886,630.889 -0.5,605.5C -0.5,583.5 -0.5,561.5 -0.5,539.5C 7.62491,425.312 45.4582,322.312 113,230.5C 172.479,155.38 246.646,99.5469 335.5,63C 415.115,30.7416 497.782,11.075 583.5,4C 606.302,2.1608 628.969,0.660802 651.5,-0.5 Z"/></g>
<g><path style="opacity:1" fill="#5bbdaf" d="M 653.5,7.5 C 713.694,7.05066 773.694,10.2173 833.5,17C 926.198,28.6773 1013.2,57.344 1094.5,103C 1235.39,188.482 1315.56,313.649 1335,478.5C 1347.64,603.646 1323.31,720.979 1262,830.5C 1228.06,889.785 1182.89,938.952 1126.5,978C 1118.03,986.459 1116.19,996.292 1121,1007.5C 1136,1056.5 1151,1105.5 1166,1154.5C 1169.35,1180.14 1158.85,1188.31 1134.5,1179C 1109.11,1165.59 1084.77,1150.59 1061.5,1134C 1025.81,1107.82 990.475,1081.15 955.5,1054C 949.804,1048.77 943.137,1046.77 935.5,1048C 828.29,1072.82 719.623,1085.65 609.5,1086.5C 533.263,1087.16 458.263,1078 384.5,1059C 232.28,1018.09 121.78,926.922 53,785.5C 3.3228,670.344 -5.6772,552.011 26,430.5C 72.2087,260.227 176.375,140.394 338.5,71C 411.396,41.1925 487.063,22.1925 565.5,14C 594.961,11.4662 624.295,9.29954 653.5,7.5 Z"/></g>
<g><path style="opacity:1" fill="#f2f2db" d="M 599.5,15.5 C 616.281,21.5549 632.614,28.7216 648.5,37C 663.076,45.4197 678.076,53.0863 693.5,60C 706.641,69.0978 709.807,80.9311 703,95.5C 692.95,114.514 677.117,125.348 655.5,128C 631.142,130.827 608.142,126.493 586.5,115C 564.827,101.828 542.827,89.1612 520.5,77C 512.167,70.6667 503.833,64.3333 495.5,58C 482.034,54.4626 476.534,59.6293 479,73.5C 489.607,102.656 500.607,131.656 512,160.5C 519.717,177.605 528.717,193.938 539,209.5C 546,218.5 553,227.5 560,236.5C 581.039,259.871 601.706,283.537 622,307.5C 653.679,338.856 686.846,368.356 721.5,396C 731.615,404.105 739.449,413.938 745,425.5C 748.896,442.479 743.73,455.979 729.5,466C 717.526,470.63 705.526,470.63 693.5,466C 657.677,445.585 621.344,425.919 584.5,407C 579.031,403.697 573.698,400.197 568.5,396.5C 562.066,400.764 556.066,405.598 550.5,411C 542.089,417.473 532.756,419.14 522.5,416C 511.303,409.987 500.136,404.154 489,398.5C 481.372,400.561 473.872,403.061 466.5,406C 463.167,406.667 459.833,406.667 456.5,406C 445.502,402.111 434.836,397.444 424.5,392C 412.332,384.415 399.999,377.082 387.5,370C 361.327,360.609 334.993,351.609 308.5,343C 289.821,334.218 270.488,327.218 250.5,322C 243.763,318.598 238.263,313.765 234,307.5C 222.758,281.015 210.425,255.015 197,229.5C 196.333,225.833 197.667,224.833 201,226.5C 214.409,251.985 226.742,277.985 238,304.5C 241.167,309 245,312.833 249.5,316C 260.715,319.972 272.049,323.638 283.5,327C 309.396,338.742 336.063,348.075 363.5,355C 345.353,346.095 327.686,336.429 310.5,326C 302.974,317.802 294.307,311.135 284.5,306C 283,303.833 283.5,302.333 286,301.5C 290.08,303.25 293.913,305.417 297.5,308C 304.614,315.049 312.281,321.383 320.5,327C 352.299,342.057 382.632,359.391 411.5,379C 421.85,385.176 432.516,390.843 443.5,396C 449.026,398.842 454.86,400.676 461,401.5C 469.143,400.008 476.976,397.508 484.5,394C 466.675,379.174 448.009,365.508 428.5,353C 405.085,341.752 381.418,331.085 357.5,321C 348.384,317.198 340.884,311.365 335,303.5C 332.591,299.108 331.091,294.442 330.5,289.5C 332.144,289.286 333.644,289.62 335,290.5C 337.538,299.025 342.371,305.858 349.5,311C 377.5,324 405.5,337 433.5,350C 454.062,363.894 474.062,378.561 493.5,394C 504.052,400.777 515.052,406.777 526.5,412C 533.794,413.509 540.46,412.176 546.5,408C 552.208,402.623 558.208,397.623 564.5,393C 545.5,373.333 526.5,353.667 507.5,334C 487.392,317.728 467.725,300.895 448.5,283.5C 447.096,281.453 447.429,279.786 449.5,278.5C 470.353,296.521 491.353,314.354 512.5,332C 528.533,348.365 544.2,365.032 559.5,382C 567.212,388.714 575.212,395.047 583.5,401C 616.143,417.652 648.143,435.318 679.5,454C 688.302,459.045 697.636,462.711 707.5,465C 727.885,465.79 739.219,455.957 741.5,435.5C 740.792,427.086 737.625,419.753 732,413.5C 727.167,408.667 722.333,403.833 717.5,399C 683.18,371.69 650.346,342.523 619,311.5C 600.411,288.907 581.078,266.907 561,245.5C 538.998,220.185 520.998,192.185 507,161.5C 495.744,133.4 485.077,105.066 475,76.5C 470.416,65.0581 473.583,56.8914 484.5,52C 491.514,51.0027 497.847,52.6693 503.5,57C 511.655,64.8234 520.655,71.4901 530.5,77C 549.325,86.9094 567.658,97.5761 585.5,109C 607.717,121.312 631.384,125.979 656.5,123C 676.167,120.271 690.333,110.104 699,92.5C 704.033,80.6012 701.199,71.1012 690.5,64C 675.831,57.2282 661.497,49.8949 647.5,42C 631.522,33.8436 615.188,26.5103 598.5,20C 597.419,18.2894 597.752,16.7894 599.5,15.5 Z"/></g>
<g><path style="opacity:1" fill="#f0f2da" d="M 656.5,53.5 C 658.635,53.147 659.968,53.9803 660.5,56C 657.578,66.8554 654.578,77.6888 651.5,88.5C 657.93,97.2059 666.597,100.706 677.5,99C 685.475,95.0253 691.475,89.0253 695.5,81C 698.667,80.1667 699.833,81.3333 699,84.5C 684.43,109.326 667.096,111.659 647,91.5C 646.333,89.5 646.333,87.5 647,85.5C 650.737,74.9675 653.903,64.3008 656.5,53.5 Z"/></g>
<g><path style="opacity:1" fill="#f7f4dc" d="M 857.5,326.5 C 859.144,326.286 860.644,326.62 862,327.5C 863.677,348.031 872.511,364.531 888.5,377C 894.816,381.322 901.816,383.655 909.5,384C 911.527,385.396 911.86,387.062 910.5,389C 891.634,391.01 877.468,400.177 868,416.5C 864.083,423.919 860.75,431.586 858,439.5C 856.667,440.833 855.333,440.833 854,439.5C 851.734,422.464 843.901,408.631 830.5,398C 822.797,393.153 815.13,388.319 807.5,383.5C 807.977,382.522 808.643,381.689 809.5,381C 822.902,380.548 834.068,375.381 843,365.5C 848.596,352.781 853.429,339.781 857.5,326.5 Z"/></g>
<g><path style="opacity:1" fill="#f2f2db" d="M 718.5,427.5 C 727.756,427.58 733.256,432.247 735,441.5C 735.769,444.099 735.602,446.599 734.5,449C 733.216,449.684 732.049,449.517 731,448.5C 730.636,442.902 728.802,437.902 725.5,433.5C 721.134,432.161 717.134,432.995 713.5,436C 707.167,441.667 700.833,447.333 694.5,453C 692.702,454.505 690.868,454.672 689,453.5C 690.578,449.886 693.078,446.719 696.5,444C 703.451,437.867 710.785,432.367 718.5,427.5 Z"/></g>
<g><path style="opacity:1" fill="#f2f2db" d="M 785.5,497.5 C 799.8,496.212 812.8,499.712 824.5,508C 861.082,535.966 898.082,562.966 935.5,589C 943.164,583.499 951.164,578.499 959.5,574C 968.004,571.263 976.004,572.263 983.5,577C 992.527,583.182 1001.19,589.849 1009.5,597C 1013.17,597.667 1016.83,597.667 1020.5,597C 1029.74,593.074 1039.07,592.74 1048.5,596C 1057.5,600.832 1066.17,606.165 1074.5,612C 1086.83,621.667 1099.17,631.333 1111.5,641C 1137.68,654.256 1164.01,667.256 1190.5,680C 1206.95,690.561 1224.29,699.561 1242.5,707C 1248.53,711.692 1253.03,717.525 1256,724.5C 1262.23,747.871 1270.07,770.704 1279.5,793C 1278.71,794.626 1277.71,796.126 1276.5,797.5C 1266.32,774.128 1257.82,750.128 1251,725.5C 1248.31,719.803 1244.48,714.97 1239.5,711C 1221.29,703.561 1203.95,694.561 1187.5,684C 1168.96,674.561 1150.29,665.395 1131.5,656.5C 1145.74,667.456 1160.74,678.289 1176.5,689C 1185.33,699.167 1194.83,708.667 1205,717.5C 1205.44,721.534 1203.94,722.367 1200.5,720C 1190.5,711.333 1181.17,702 1172.5,692C 1153.99,679.246 1135.66,666.246 1117.5,653C 1102.15,639.984 1086.48,627.318 1070.5,615C 1062.33,609.748 1054,604.748 1045.5,600C 1040.57,598.582 1035.57,598.249 1030.5,599C 1025.83,600.333 1021.17,601.667 1016.5,603C 1031.56,618.729 1047.23,633.729 1063.5,648C 1089.16,664.834 1115.16,681.167 1141.5,697C 1150.68,704.007 1156.34,713.174 1158.5,724.5C 1158.25,727.082 1156.92,727.915 1154.5,727C 1152.61,718.22 1148.61,710.553 1142.5,704C 1117.67,688.083 1092.67,672.416 1067.5,657C 1059.5,650.333 1051.5,643.667 1043.5,637C 1024.58,615.734 1003.58,597.067 980.5,581C 974.886,577.791 968.886,576.791 962.5,578C 953.658,582.585 945.325,587.918 937.5,594C 954.667,616.5 971.833,639 989,661.5C 1005.33,679.167 1021.67,696.833 1038,714.5C 1039.4,716.394 1040.57,718.394 1041.5,720.5C 1041.47,722.704 1040.47,723.538 1038.5,723C 1021.04,703.2 1003.2,683.7 985,664.5C 970.563,646.731 956.896,628.398 944,609.5C 937.237,600.733 929.737,592.567 921.5,585C 891.657,564.825 862.657,543.491 834.5,521C 824.297,512.898 812.963,506.898 800.5,503C 782.782,500.616 771.615,508.116 767,525.5C 766.475,534.065 768.475,542.065 773,549.5C 791.221,572.06 810.554,593.727 831,614.5C 842.04,626.538 852.707,638.871 863,651.5C 889.494,689.153 915.494,727.153 941,765.5C 956.369,791.937 968.036,819.937 976,849.5C 981.221,873.383 987.221,897.05 994,920.5C 995.281,927.591 994.281,934.258 991,940.5C 986.302,944.717 980.802,946.217 974.5,945C 970.325,943.416 966.659,941.082 963.5,938C 958.533,932.031 953.199,926.365 947.5,921C 925.807,905.151 904.473,888.818 883.5,872C 860.862,856.424 835.862,850.09 808.5,853C 789.922,857.009 777.422,867.843 771,885.5C 770.622,896.237 775.122,904.404 784.5,910C 798.687,918.592 812.354,927.925 825.5,938C 842.167,948.333 858.833,958.667 875.5,969C 884.031,977.197 892.198,985.697 900,994.5C 900.49,995.793 900.657,997.127 900.5,998.5C 899.127,998.657 897.793,998.49 896.5,998C 887.5,987.667 877.833,978 867.5,969C 846.643,958.078 826.977,945.412 808.5,931C 795.168,923.333 782.668,914.499 771,904.5C 764.506,892.414 765.173,880.748 773,869.5C 782.889,856.466 796.055,848.966 812.5,847C 838.196,845.674 861.863,852.008 883.5,866C 904.476,882.487 925.809,898.487 947.5,914C 955.167,921.667 962.833,929.333 970.5,937C 982.022,943.406 988.356,940.073 989.5,927C 989.333,924.833 989.167,922.667 989,920.5C 981.427,890.403 973.427,860.403 965,830.5C 957.844,808.853 948.51,788.187 937,768.5C 911.581,730.66 885.914,692.993 860,655.5C 834.072,625.568 807.405,596.235 780,567.5C 774.555,561.386 769.888,554.72 766,547.5C 757.2,524.778 763.7,508.112 785.5,497.5 Z"/></g>
<g><path style="opacity:1" fill="#f2f2db" d="M 774.5,515.5 C 775.822,515.33 776.989,515.663 778,516.5C 777.485,533.361 784.318,537.528 798.5,529C 804.5,524.667 810.5,520.333 816.5,516C 817.793,515.51 819.127,515.343 820.5,515.5C 820.714,517.144 820.38,518.644 819.5,520C 811.175,526.164 802.508,531.831 793.5,537C 787.047,539.893 781.547,538.726 777,533.5C 774.391,527.65 773.558,521.65 774.5,515.5 Z"/></g>
<g><path style="opacity:1" fill="#131414" d="M 258.5,715.5 C 282.775,715.95 293.275,728.283 290,752.5C 283.946,770.114 271.78,776.614 253.5,772C 243.163,767.645 237.329,759.812 236,748.5C 234.603,731.263 242.103,720.263 258.5,715.5 Z"/></g>
<g><path style="opacity:1" fill="#131414" d="M 496.5,715.5 C 520.775,715.95 531.275,728.283 528,752.5C 521.946,770.114 509.78,776.614 491.5,772C 481.163,767.645 475.329,759.812 474,748.5C 472.603,731.263 480.103,720.263 496.5,715.5 Z"/></g>
<g><path style="opacity:1" fill="#131414" d="M 667.5,715.5 C 673.62,715.026 679.453,716.026 685,718.5C 686.789,716.771 688.956,716.104 691.5,716.5C 691.5,723.5 691.5,730.5 691.5,737.5C 689.833,737.5 688.167,737.5 686.5,737.5C 685.775,727.962 680.941,721.962 672,719.5C 663.734,721.1 658.734,726.1 657,734.5C 654.002,746.731 656.835,757.231 665.5,766C 676.854,770.657 684.521,767.157 688.5,755.5C 691.757,755.174 693.257,756.507 693,759.5C 688.813,768.936 681.48,773.603 671,773.5C 653.941,771.771 645.108,762.271 644.5,745C 645.036,729.327 652.702,719.494 667.5,715.5 Z"/></g>
<g><path style="opacity:1" fill="#131414" d="M 713.5,715.5 C 718.984,715.014 724.15,716.014 729,718.5C 730.789,716.771 732.956,716.104 735.5,716.5C 735.5,722.833 735.5,729.167 735.5,735.5C 733.833,735.5 732.167,735.5 730.5,735.5C 729.813,728.627 726.48,723.46 720.5,720C 711.783,719.051 708.283,722.884 710,731.5C 710.465,732.931 711.299,734.097 712.5,735C 719.083,738.194 725.75,741.194 732.5,744C 740.464,752.917 740.131,761.584 731.5,770C 722.94,774.488 714.273,774.654 705.5,770.5C 703.477,772.173 701.144,772.84 698.5,772.5C 698.5,765.833 698.5,759.167 698.5,752.5C 700.199,752.34 701.866,752.506 703.5,753C 705.252,760.077 709.252,765.41 715.5,769C 726.593,769.991 730.427,765.158 727,754.5C 725.833,753.333 724.667,752.167 723.5,751C 717.833,748.667 712.167,746.333 706.5,744C 700.777,739.16 698.943,732.993 701,725.5C 703.432,719.882 707.599,716.549 713.5,715.5 Z"/></g>
<g><path style="opacity:1" fill="#121212" d="M 182.5,716.5 C 199.167,716.5 215.833,716.5 232.5,716.5C 232.5,721.833 232.5,727.167 232.5,732.5C 230.833,732.5 229.167,732.5 227.5,732.5C 225.994,723.983 220.994,719.983 212.5,720.5C 212.333,735.504 212.5,750.504 213,765.5C 215.305,767.93 218.138,768.93 221.5,768.5C 221.5,769.833 221.5,771.167 221.5,772.5C 212.167,772.5 202.833,772.5 193.5,772.5C 193.5,771.167 193.5,769.833 193.5,768.5C 196.97,769.125 199.804,768.125 202,765.5C 202.5,750.504 202.667,735.504 202.5,720.5C 199.813,720.336 197.146,720.503 194.5,721C 190.855,723.958 188.188,727.625 186.5,732C 185.207,732.49 183.873,732.657 182.5,732.5C 182.5,727.167 182.5,721.833 182.5,716.5 Z"/></g>
<g><path style="opacity:1" fill="#131515" d="M 316.5,724.5 C 315.183,730.346 315.183,736.346 316.5,742.5C 317.107,742.376 317.44,742.043 317.5,741.5C 322.802,737.03 327.636,732.03 332,726.5C 334.639,722.242 333.472,720.242 328.5,720.5C 328.5,719.167 328.5,717.833 328.5,716.5C 335.833,716.5 343.167,716.5 350.5,716.5C 350.5,717.833 350.5,719.167 350.5,720.5C 348.073,720.523 345.74,721.023 343.5,722C 337.487,728.678 331.487,735.345 325.5,742C 332.448,750.618 339.781,758.952 347.5,767C 349.677,768.202 352.011,768.702 354.5,768.5C 354.5,769.833 354.5,771.167 354.5,772.5C 348.491,772.666 342.491,772.499 336.5,772C 330.753,764.005 324.419,756.505 317.5,749.5C 317.44,748.957 317.107,748.624 316.5,748.5C 315.184,754.32 315.184,759.987 316.5,765.5C 318.176,767.834 320.509,768.834 323.5,768.5C 323.5,769.833 323.5,771.167 323.5,772.5C 315.167,772.5 306.833,772.5 298.5,772.5C 298.5,771.167 298.5,769.833 298.5,768.5C 301.044,768.896 303.211,768.229 305,766.5C 305.667,751.833 305.667,737.167 305,722.5C 303.103,720.984 300.936,720.317 298.5,720.5C 298.5,719.167 298.5,717.833 298.5,716.5C 306.833,716.5 315.167,716.5 323.5,716.5C 323.5,717.833 323.5,719.167 323.5,720.5C 319.998,720.076 317.665,721.41 316.5,724.5 Z"/></g>
<g><path style="opacity:1" fill="#141616" d="M 356.5,716.5 C 371.167,716.5 385.833,716.5 400.5,716.5C 400.5,721.167 400.5,725.833 400.5,730.5C 398.833,730.5 397.167,730.5 395.5,730.5C 394.764,726.209 392.431,723.042 388.5,721C 383.845,720.501 379.179,720.334 374.5,720.5C 374.5,727.5 374.5,734.5 374.5,741.5C 382.475,743.503 386.809,740.503 387.5,732.5C 389.167,732.5 390.833,732.5 392.5,732.5C 392.5,739.833 392.5,747.167 392.5,754.5C 390.833,754.5 389.167,754.5 387.5,754.5C 386.809,746.497 382.475,743.497 374.5,745.5C 374.334,752.508 374.5,759.508 375,766.5C 375.5,767 376,767.5 376.5,768C 388.64,771.931 396.64,767.931 400.5,756C 401.793,755.51 403.127,755.343 404.5,755.5C 404.5,761.167 404.5,766.833 404.5,772.5C 388.5,772.5 372.5,772.5 356.5,772.5C 356.5,771.167 356.5,769.833 356.5,768.5C 359.044,768.896 361.211,768.229 363,766.5C 363.667,751.833 363.667,737.167 363,722.5C 361.103,720.984 358.936,720.317 356.5,720.5C 356.5,719.167 356.5,717.833 356.5,716.5 Z"/></g>
<g><path style="opacity:1" fill="#121313" d="M 407.5,716.5 C 413.509,716.334 419.509,716.501 425.5,717C 435,729.833 444.5,742.667 454,755.5C 454.667,745.5 454.667,735.5 454,725.5C 451.961,721.864 448.794,720.198 444.5,720.5C 444.5,719.167 444.5,717.833 444.5,716.5C 452.833,716.5 461.167,716.5 469.5,716.5C 469.5,717.833 469.5,719.167 469.5,720.5C 465.79,720.225 462.957,721.558 461,724.5C 460.5,740.83 460.333,757.163 460.5,773.5C 458.208,773.756 456.041,773.423 454,772.5C 444.244,758.656 434.244,744.989 424,731.5C 423.333,742.167 423.333,752.833 424,763.5C 426.039,767.136 429.206,768.802 433.5,768.5C 433.5,769.833 433.5,771.167 433.5,772.5C 425.167,772.5 416.833,772.5 408.5,772.5C 408.5,771.167 408.5,769.833 408.5,768.5C 411.939,768.411 414.772,767.078 417,764.5C 417.667,751.833 417.667,739.167 417,726.5C 415.188,722.392 412.021,720.392 407.5,720.5C 407.5,719.167 407.5,717.833 407.5,716.5 Z"/></g>
<g><path style="opacity:1" fill="#121313" d="M 585.5,765.5 C 586.66,753.674 586.826,741.674 586,729.5C 584.961,730.244 584.461,731.244 584.5,732.5C 579.243,745.098 574.077,757.764 569,770.5C 567.644,771.38 566.144,771.714 564.5,771.5C 559.443,757.164 554.276,742.831 549,728.5C 548.333,740.167 548.333,751.833 549,763.5C 550.734,766.922 553.567,768.589 557.5,768.5C 557.5,769.833 557.5,771.167 557.5,772.5C 549.5,772.5 541.5,772.5 533.5,772.5C 533.5,771.167 533.5,769.833 533.5,768.5C 537.025,768.654 539.859,767.321 542,764.5C 542.667,751.167 542.667,737.833 542,724.5C 539.859,721.679 537.025,720.346 533.5,720.5C 533.5,719.167 533.5,717.833 533.5,716.5C 540.755,716.187 547.921,716.52 555,717.5C 559.836,729.838 564.67,742.172 569.5,754.5C 575.169,742.155 579.836,729.488 583.5,716.5C 590.5,716.5 597.5,716.5 604.5,716.5C 604.5,717.833 604.5,719.167 604.5,720.5C 601.728,720.22 599.228,720.887 597,722.5C 596.333,737.167 596.333,751.833 597,766.5C 599.228,768.113 601.728,768.78 604.5,768.5C 604.5,769.833 604.5,771.167 604.5,772.5C 595.5,772.5 586.5,772.5 577.5,772.5C 577.5,771.167 577.5,769.833 577.5,768.5C 580.942,769.172 583.609,768.172 585.5,765.5 Z"/></g>
<g><path style="opacity:1" fill="#121212" d="M 611.5,716.5 C 620.5,716.5 629.5,716.5 638.5,716.5C 638.5,717.833 638.5,719.167 638.5,720.5C 635.728,720.22 633.228,720.887 631,722.5C 630.333,737.167 630.333,751.833 631,766.5C 633.228,768.113 635.728,768.78 638.5,768.5C 638.5,769.833 638.5,771.167 638.5,772.5C 629.5,772.5 620.5,772.5 611.5,772.5C 611.5,771.167 611.5,769.833 611.5,768.5C 615.013,769.124 617.847,768.124 620,765.5C 620.667,751.5 620.667,737.5 620,723.5C 617.581,721.415 614.747,720.415 611.5,720.5C 611.5,719.167 611.5,717.833 611.5,716.5 Z"/></g>
<g><path style="opacity:1" fill="#59baac" d="M 259.5,719.5 C 270.588,719.077 277.088,724.41 279,735.5C 279.848,742.899 279.515,750.233 278,757.5C 271.838,770.93 263.172,772.93 252,763.5C 247.651,754.33 246.318,744.663 248,734.5C 249.466,727.551 253.3,722.551 259.5,719.5 Z"/></g>
<g><path style="opacity:1" fill="#59baac" d="M 497.5,719.5 C 508.588,719.077 515.088,724.41 517,735.5C 517.848,742.899 517.515,750.233 516,757.5C 509.838,770.93 501.172,772.93 490,763.5C 485.651,754.33 484.318,744.663 486,734.5C 487.466,727.551 491.3,722.551 497.5,719.5 Z"/></g>
<g><path style="opacity:1" fill="#1f3834" d="M 316.5,724.5 C 316.178,730.358 316.511,736.025 317.5,741.5C 317.44,742.043 317.107,742.376 316.5,742.5C 315.183,736.346 315.183,730.346 316.5,724.5 Z"/></g>
<g><path style="opacity:1" fill="#41887d" d="M 585.5,765.5 C 585.828,754.321 585.495,743.321 584.5,732.5C 584.461,731.244 584.961,730.244 586,729.5C 586.826,741.674 586.66,753.674 585.5,765.5 Z"/></g>
<g><path style="opacity:1" fill="#1f3734" d="M 317.5,749.5 C 316.512,754.64 316.179,759.974 316.5,765.5C 315.184,759.987 315.184,754.32 316.5,748.5C 317.107,748.624 317.44,748.957 317.5,749.5 Z"/></g>
<g><path style="opacity:1" fill="#f3f3db" d="M 793.5,867.5 C 807.041,866.854 817.541,872.187 825,883.5C 825.584,886.257 825.25,888.923 824,891.5C 820.162,901.017 816.329,910.517 812.5,920C 810.393,920.854 809.059,920.188 808.5,918C 812.011,907.299 816.011,896.799 820.5,886.5C 814.475,876.154 805.475,871.654 793.5,873C 786.392,876.946 780.392,882.112 775.5,888.5C 774,888.547 773,887.881 772.5,886.5C 777.351,877.643 784.351,871.309 793.5,867.5 Z"/></g>
</svg>
