<?xml version="1.0" encoding="UTF-8"?>
<!DOCTYPE svg PUBLIC "-//W3C//DTD SVG 1.1//EN" "http://www.w3.org/Graphics/SVG/1.1/DTD/svg11.dtd">
<svg xmlns="http://www.w3.org/2000/svg" version="1.1" width="1343px" height="1190px" style="shape-rendering:geometricPrecision; text-rendering:geometricPrecision; image-rendering:optimizeQuality; fill-rule:evenodd; clip-rule:evenodd" xmlns:xlink="http://www.w3.org/1999/xlink">
<g><path style="opacity:0.977" fill="#2e2e2e" d="M 680.5,-0.5 C 700.5,-0.5 720.5,-0.5 740.5,-0.5C 826.698,2.04086 909.698,19.8742 989.5,53C 1011.26,62.7103 1032.26,73.7103 1052.5,86C 1085.27,108.061 1116.61,132.061 1146.5,158C 1170.69,179.634 1191.19,204.134 1208,231.5C 1217.33,250.167 1226.67,268.833 1236,287.5C 1242.84,304.052 1244.5,321.052 1241,338.5C 1233.82,360.342 1218.99,373.842 1196.5,379C 1183.57,381.881 1170.57,382.214 1157.5,380C 1136.37,373.844 1115.03,368.511 1093.5,364C 1073.11,361.463 1055.94,367.629 1042,382.5C 1035.13,392.099 1032.13,402.765 1033,414.5C 1049.3,427.569 1067.46,437.402 1087.5,444C 1109.51,451.335 1131.51,458.669 1153.5,466C 1191.74,482.441 1227.08,503.441 1259.5,529C 1277.61,544.433 1292.78,562.266 1305,582.5C 1314.35,601.198 1323.68,619.864 1333,638.5C 1337.4,651.34 1340.56,664.34 1342.5,677.5C 1342.5,689.5 1342.5,701.5 1342.5,713.5C 1336.34,759.486 1321.84,802.82 1299,843.5C 1268.37,895.832 1230.54,942.665 1185.5,984C 1092.34,1070.44 984.005,1130.77 860.5,1165C 807.882,1178.82 754.548,1186.99 700.5,1189.5C 681.5,1189.5 662.5,1189.5 643.5,1189.5C 516.153,1184.22 398.153,1148.38 289.5,1082C 242.186,1051.37 199.686,1014.87 162,972.5C 143.621,950.456 125.621,928.123 108,905.5C 24.944,783.912 -4.38931,650.245 20,504.5C 42.5898,391.978 92.5898,293.978 170,210.5C 274.458,100.514 402.291,34.6803 553.5,13C 595.734,6.11089 638.067,1.61089 680.5,-0.5 Z"/></g>
<g><path style="opacity:1" fill="#4bab82" d="M 117.5,903.5 C 193.659,931.832 269.659,960.665 345.5,990C 403.559,1006.97 455.559,995.966 501.5,957C 518.167,941.169 531,922.669 540,901.5C 619.804,692.422 699.804,483.422 780,274.5C 791.381,245.321 784.547,221.488 759.5,203C 756.167,201.333 752.833,199.667 749.5,198C 632.205,153.629 515.205,108.796 398.5,63.5C 429.411,50.2534 461.411,40.0867 494.5,33C 593.384,9.98923 693.384,2.98923 794.5,12C 865.842,19.2515 934.175,37.5849 999.5,67C 1020.47,76.8146 1040.47,88.148 1059.5,101C 1088.65,121.475 1116.65,143.475 1143.5,167C 1171.37,191.945 1193.54,221.112 1210,254.5C 1219.51,273.663 1220.84,293.33 1214,313.5C 1207.92,326.636 1198.08,335.802 1184.5,341C 1170.25,346.145 1155.58,347.811 1140.5,346C 1123.6,342.142 1106.93,337.476 1090.5,332C 1073.33,327.097 1056.33,327.43 1039.5,333C 1008.04,350.137 1000.21,374.97 1016,407.5C 1022.17,416.333 1029.67,423.833 1038.5,430C 1049.06,436.448 1060.06,442.114 1071.5,447C 1096.59,456.276 1121.93,464.942 1147.5,473C 1186.74,489.269 1222.74,510.602 1255.5,537C 1311.99,586.099 1330.49,646.932 1311,719.5C 1294.45,780.282 1266.11,834.615 1226,882.5C 1109.86,1018.85 963.694,1105.35 787.5,1142C 619.784,1172.6 460.45,1148.6 309.5,1070C 233.036,1029.05 169.036,973.548 117.5,903.5 Z"/></g>
<g><path style="opacity:1" fill="#f2f2d9" d="M 398.5,63.5 C 515.205,108.796 632.205,153.629 749.5,198C 752.833,199.667 756.167,201.333 759.5,203C 784.547,221.488 791.381,245.321 780,274.5C 699.804,483.422 619.804,692.422 540,901.5C 531,922.669 518.167,941.169 501.5,957C 455.559,995.966 403.559,1006.97 345.5,990C 269.659,960.665 193.659,931.832 117.5,903.5C 115.252,900.672 113.252,897.672 111.5,894.5C 189.837,924.225 268.17,954.058 346.5,984C 400.535,1000.39 449.535,991.052 493.5,956C 511.253,940.584 524.753,922.084 534,900.5C 616.234,686.701 697.901,472.701 779,258.5C 781.434,237.203 773.934,220.37 756.5,208C 634.264,160.315 511.93,113.148 389.5,66.5C 392.285,64.9049 395.285,63.9049 398.5,63.5 Z"/></g>
<g><path style="opacity:1" fill="#4cac83" d="M 389.5,66.5 C 511.93,113.148 634.264,160.315 756.5,208C 773.934,220.37 781.434,237.203 779,258.5C 697.901,472.701 616.234,686.701 534,900.5C 524.753,922.084 511.253,940.584 493.5,956C 449.535,991.052 400.535,1000.39 346.5,984C 268.17,954.058 189.837,924.225 111.5,894.5C 76.5042,843.826 51.1708,788.492 35.5,728.5C 111.391,532.844 186.724,336.844 261.5,140.5C 300.925,110.769 343.591,86.1027 389.5,66.5 Z"/></g>
<g><path style="opacity:1" fill="#f2f2d9" d="M 351.5,127.5 C 362.858,126.509 373.858,128.009 384.5,132C 481.088,169.196 577.755,206.196 674.5,243C 698.285,254.791 709.451,273.958 708,300.5C 706.944,306.668 705.277,312.668 703,318.5C 672.667,397.5 642.333,476.5 612,555.5C 595.443,581.524 572.277,590.357 542.5,582C 445.912,544.804 349.245,507.804 252.5,471C 223.436,457.711 211.603,435.211 217,403.5C 247.47,323.089 278.137,242.755 309,162.5C 317.373,143.612 331.54,131.946 351.5,127.5 Z"/></g>
<g><path style="opacity:1" fill="#4dac83" d="M 350.5,133.5 C 361.876,132.45 372.876,133.95 383.5,138C 475.755,173.53 568.088,208.863 660.5,244C 690.641,253.135 704.141,273.301 701,304.5C 670.617,385.6 639.951,466.6 609,547.5C 597.895,570.808 579.395,581.308 553.5,579C 453.355,541.396 353.355,503.396 253.5,465C 227.816,452.799 217.649,432.633 223,404.5C 253,325.833 283,247.167 313,168.5C 319.606,150.39 332.106,138.723 350.5,133.5 Z"/></g>
<g><path style="opacity:1" fill="#f2f2d9" d="M 261.5,140.5 C 186.724,336.844 111.391,532.844 35.5,728.5C 35.0405,725.123 34.3739,721.789 33.5,718.5C 106.675,528.32 179.675,337.987 252.5,147.5C 255.19,144.815 258.19,142.482 261.5,140.5 Z"/></g>
<g><path style="opacity:1" fill="#4cab82" d="M 252.5,147.5 C 179.675,337.987 106.675,528.32 33.5,718.5C 3.94408,582.891 23.1107,454.558 91,333.5C 132.04,260.611 185.873,198.611 252.5,147.5 Z"/></g>
<g><path style="opacity:1" fill="#f2f2d9" d="M 384.5,176.5 C 392.14,175.817 399.473,176.984 406.5,180C 482.912,209.137 559.245,238.47 635.5,268C 644.967,275.726 647.467,285.226 643,296.5C 613,374.5 583,452.5 553,530.5C 547.125,537.568 539.625,540.735 530.5,540C 449.819,509.775 369.486,478.775 289.5,447C 281.537,439.296 279.37,430.13 283,419.5C 312.95,340.976 343.284,262.643 374,184.5C 376.94,180.963 380.44,178.297 384.5,176.5 Z"/></g>
<g><path style="opacity:1" fill="#4cac83" d="M 388.5,181.5 C 391.607,181.351 394.607,181.851 397.5,183C 476.389,212.778 555.055,243.112 633.5,274C 639.968,280.271 641.135,287.438 637,295.5C 607.667,372.167 578.333,448.833 549,525.5C 541.888,535.093 533.055,536.926 522.5,531C 446.944,501.722 371.277,472.722 295.5,444C 287.531,437.955 285.365,430.122 289,420.5C 318.723,342.722 348.723,265.056 379,187.5C 381.843,184.837 385.009,182.837 388.5,181.5 Z"/></g>
<g><path style="opacity:1" fill="#f8f4dc" d="M 218.5,571.5 C 226.571,572.134 234.238,574.3 241.5,578C 247.385,581.98 249.551,587.48 248,594.5C 243.361,606.278 238.861,618.112 234.5,630C 234.833,630.5 235.167,631 235.5,631.5C 247.206,635.902 258.873,640.402 270.5,645C 276.97,649.126 279.137,654.959 277,662.5C 275.196,667.58 273.196,672.58 271,677.5C 266.382,683.053 260.549,684.886 253.5,683C 242.001,678.245 230.334,674.079 218.5,670.5C 214.632,681.91 210.465,693.244 206,704.5C 202.672,712.248 196.839,715.414 188.5,714C 183.42,712.196 178.42,710.196 173.5,708C 167.412,703.748 165.246,697.915 167,690.5C 171.206,678.716 175.706,667.049 180.5,655.5C 167.136,650.1 153.803,644.6 140.5,639C 135.911,634.034 134.411,628.2 136,621.5C 138,616.833 140,612.167 142,607.5C 146.017,602.407 151.184,600.574 157.5,602C 170.065,606.965 182.731,611.298 195.5,615C 200.133,602.771 204.966,590.604 210,578.5C 212.441,575.546 215.275,573.213 218.5,571.5 Z"/></g>
<g><path style="opacity:1" fill="#f2f2d9" d="M 474.5,687.5 C 493.803,684.733 507.637,692.066 516,709.5C 520.87,729.261 514.37,743.761 496.5,753C 472.317,759.327 456.817,750.493 450,726.5C 448.612,707.407 456.778,694.407 474.5,687.5 Z"/></g>
<g><path style="opacity:1" fill="#4dac83" d="M 475.5,693.5 C 500.34,691.51 512.173,702.843 511,727.5C 505.62,743.61 494.453,750.777 477.5,749C 461.077,743.33 453.911,731.83 456,714.5C 457.598,709.468 460.098,704.968 463.5,701C 467.428,698.21 471.428,695.71 475.5,693.5 Z"/></g>
<g><path style="opacity:1" fill="#101211" d="M 645.5,708.5 C 650.663,708.08 655.496,709.08 660,711.5C 661.401,709.808 663.234,709.141 665.5,709.5C 665.5,715.167 665.5,720.833 665.5,726.5C 664.022,726.762 662.689,726.429 661.5,725.5C 660.324,719.966 657.324,715.8 652.5,713C 645.333,712.167 642.167,715.333 643,722.5C 643.785,724.286 644.951,725.786 646.5,727C 651.916,729.139 657.249,731.472 662.5,734C 668.229,740.093 669.062,746.926 665,754.5C 657.538,760.727 649.204,762.06 640,758.5C 637.863,759.077 635.696,759.41 633.5,759.5C 633.5,753.5 633.5,747.5 633.5,741.5C 634.833,741.5 636.167,741.5 637.5,741.5C 639.16,751.344 644.826,756.177 654.5,756C 660.747,751.486 661.08,746.486 655.5,741C 649.748,738.526 644.081,735.86 638.5,733C 631.337,721.944 633.671,713.777 645.5,708.5 Z"/></g>
<g><path style="opacity:1" fill="#101212" d="M 932.5,708.5 C 950.525,707.86 959.858,716.526 960.5,734.5C 958.622,754.785 947.622,762.951 927.5,759C 916.965,754.131 911.965,745.797 912.5,734C 912.201,724.598 915.867,717.265 923.5,712C 926.459,710.396 929.459,709.229 932.5,708.5 Z"/></g>
<g><path style="opacity:1" fill="#101412" d="M 987.5,708.5 C 992.617,708.291 997.617,708.957 1002.5,710.5C 1004.78,709.777 1007.12,709.443 1009.5,709.5C 1009.5,715.5 1009.5,721.5 1009.5,727.5C 1007.83,727.5 1006.17,727.5 1004.5,727.5C 1002.53,714.525 995.535,710.359 983.5,715C 980.509,717.99 978.343,721.49 977,725.5C 974.07,737.141 976.903,746.975 985.5,755C 998.457,759.268 1003.29,754.768 1000,741.5C 997.772,739.887 995.272,739.22 992.5,739.5C 992.5,738.5 992.5,737.5 992.5,736.5C 1000.17,736.5 1007.83,736.5 1015.5,736.5C 1015.5,737.5 1015.5,738.5 1015.5,739.5C 1013.28,739.178 1011.44,739.845 1010,741.5C 1009.5,746.489 1009.33,751.489 1009.5,756.5C 1002.08,759.283 994.416,760.45 986.5,760C 973.197,757.094 966.53,748.761 966.5,735C 966.731,720.62 973.731,711.787 987.5,708.5 Z"/></g>
<g><path style="opacity:1" fill="#0f1010" d="M 674.5,709.5 C 681.5,709.5 688.5,709.5 695.5,709.5C 695.5,710.5 695.5,711.5 695.5,712.5C 693.278,712.178 691.444,712.845 690,714.5C 689.501,720.157 689.334,725.824 689.5,731.5C 696.5,731.5 703.5,731.5 710.5,731.5C 710.666,725.824 710.499,720.157 710,714.5C 708.416,713.139 706.582,712.472 704.5,712.5C 704.5,711.5 704.5,710.5 704.5,709.5C 711.5,709.5 718.5,709.5 725.5,709.5C 725.5,710.5 725.5,711.5 725.5,712.5C 723.278,712.178 721.444,712.845 720,714.5C 719.333,727.833 719.333,741.167 720,754.5C 721.444,756.155 723.278,756.822 725.5,756.5C 725.5,757.5 725.5,758.5 725.5,759.5C 718.5,759.5 711.5,759.5 704.5,759.5C 704.5,758.5 704.5,757.5 704.5,756.5C 706.722,756.822 708.556,756.155 710,754.5C 710.5,748.175 710.666,741.842 710.5,735.5C 703.5,735.5 696.5,735.5 689.5,735.5C 689.334,741.842 689.5,748.175 690,754.5C 691.444,756.155 693.278,756.822 695.5,756.5C 695.5,757.5 695.5,758.5 695.5,759.5C 688.5,759.5 681.5,759.5 674.5,759.5C 674.5,758.5 674.5,757.5 674.5,756.5C 676.722,756.822 678.556,756.155 680,754.5C 680.667,741.167 680.667,727.833 680,714.5C 678.416,713.139 676.582,712.472 674.5,712.5C 674.5,711.5 674.5,710.5 674.5,709.5 Z"/></g>
<g><path style="opacity:1" fill="#0f1010" d="M 732.5,709.5 C 740.167,709.5 747.833,709.5 755.5,709.5C 755.5,710.5 755.5,711.5 755.5,712.5C 752.956,712.104 750.789,712.771 749,714.5C 748.333,727.833 748.333,741.167 749,754.5C 750.897,756.016 753.064,756.683 755.5,756.5C 755.5,757.5 755.5,758.5 755.5,759.5C 747.833,759.5 740.167,759.5 732.5,759.5C 732.5,758.5 732.5,757.5 732.5,756.5C 735.044,756.896 737.211,756.229 739,754.5C 739.667,741.167 739.667,727.833 739,714.5C 736.993,713.331 734.827,712.665 732.5,712.5C 732.5,711.5 732.5,710.5 732.5,709.5 Z"/></g>
<g><path style="opacity:1" fill="#0f1211" d="M 762.5,709.5 C 771.506,709.334 780.506,709.5 789.5,710C 800.505,712.352 803.338,718.519 798,728.5C 795.92,730.123 793.754,731.623 791.5,733C 802.773,736.706 805.606,743.873 800,754.5C 796.951,756.964 793.451,758.464 789.5,759C 780.173,759.5 770.839,759.666 761.5,759.5C 761.5,758.5 761.5,757.5 761.5,756.5C 764.044,756.896 766.211,756.229 768,754.5C 768.667,741.167 768.667,727.833 768,714.5C 766.416,713.139 764.582,712.472 762.5,712.5C 762.5,711.5 762.5,710.5 762.5,709.5 Z"/></g>
<g><path style="opacity:1" fill="#101312" d="M 829.5,709.5 C 831.144,709.286 832.644,709.62 834,710.5C 839.333,724.5 844.667,738.5 850,752.5C 851.571,754.923 853.737,756.256 856.5,756.5C 856.5,757.5 856.5,758.5 856.5,759.5C 849.167,759.5 841.833,759.5 834.5,759.5C 834.5,758.5 834.5,757.5 834.5,756.5C 836.467,756.739 838.301,756.406 840,755.5C 840.07,751.036 838.903,746.869 836.5,743C 831.5,742.333 826.5,742.333 821.5,743C 819.413,746.587 818.579,750.42 819,754.5C 820.789,756.229 822.956,756.896 825.5,756.5C 825.5,757.5 825.5,758.5 825.5,759.5C 818.833,759.5 812.167,759.5 805.5,759.5C 805.5,758.5 805.5,757.5 805.5,756.5C 808.099,756.451 810.266,755.451 812,753.5C 817.743,738.765 823.577,724.098 829.5,709.5 Z"/></g>
<g><path style="opacity:1" fill="#0f1111" d="M 859.5,709.5 C 868.173,709.334 876.84,709.5 885.5,710C 904.297,714.743 910.797,726.576 905,745.5C 900.641,753.606 893.808,758.106 884.5,759C 875.84,759.5 867.173,759.666 858.5,759.5C 858.5,758.5 858.5,757.5 858.5,756.5C 861.044,756.896 863.211,756.229 865,754.5C 865.667,741.167 865.667,727.833 865,714.5C 863.416,713.139 861.582,712.472 859.5,712.5C 859.5,711.5 859.5,710.5 859.5,709.5 Z"/></g>
<g><path style="opacity:1" fill="#0f1010" d="M 1019.5,709.5 C 1032.5,709.5 1045.5,709.5 1058.5,709.5C 1058.5,713.833 1058.5,718.167 1058.5,722.5C 1057.02,722.762 1055.69,722.429 1054.5,721.5C 1050.48,713.93 1044.15,711.263 1035.5,713.5C 1035.5,719.5 1035.5,725.5 1035.5,731.5C 1041.97,733.216 1045.97,730.882 1047.5,724.5C 1048.69,723.571 1050.02,723.238 1051.5,723.5C 1051.5,730.167 1051.5,736.833 1051.5,743.5C 1050.02,743.762 1048.69,743.429 1047.5,742.5C 1045.97,736.118 1041.97,733.784 1035.5,735.5C 1035.33,741.509 1035.5,747.509 1036,753.5C 1036.5,754 1037,754.5 1037.5,755C 1048.3,758.669 1054.97,755.169 1057.5,744.5C 1059.29,744.215 1060.95,744.548 1062.5,745.5C 1061.56,750.1 1061.22,754.767 1061.5,759.5C 1047.5,759.5 1033.5,759.5 1019.5,759.5C 1019.5,758.5 1019.5,757.5 1019.5,756.5C 1022.04,756.896 1024.21,756.229 1026,754.5C 1026.67,741.167 1026.67,727.833 1026,714.5C 1024.1,712.984 1021.94,712.317 1019.5,712.5C 1019.5,711.5 1019.5,710.5 1019.5,709.5 Z"/></g>
<g><path style="opacity:1" fill="#0f1110" d="M 1066.5,709.5 C 1075.84,709.334 1085.17,709.5 1094.5,710C 1103.68,711.857 1107.18,717.357 1105,726.5C 1103.83,731.667 1100.67,734.833 1095.5,736C 1091.25,737.195 1086.92,737.695 1082.5,737.5C 1082.33,743.176 1082.5,748.843 1083,754.5C 1084.79,756.229 1086.96,756.896 1089.5,756.5C 1089.5,757.5 1089.5,758.5 1089.5,759.5C 1082.17,759.5 1074.83,759.5 1067.5,759.5C 1067.5,758.5 1067.5,757.5 1067.5,756.5C 1069.72,756.822 1071.56,756.155 1073,754.5C 1073.67,741.167 1073.67,727.833 1073,714.5C 1071.21,712.771 1069.04,712.104 1066.5,712.5C 1066.5,711.5 1066.5,710.5 1066.5,709.5 Z"/></g>
<g><path style="opacity:1" fill="#0f1010" d="M 1111.5,709.5 C 1124.5,709.5 1137.5,709.5 1150.5,709.5C 1150.5,713.833 1150.5,718.167 1150.5,722.5C 1149.02,722.762 1147.69,722.429 1146.5,721.5C 1142.48,713.93 1136.15,711.263 1127.5,713.5C 1127.5,719.5 1127.5,725.5 1127.5,731.5C 1133.97,733.216 1137.97,730.882 1139.5,724.5C 1140.69,723.571 1142.02,723.238 1143.5,723.5C 1143.5,730.167 1143.5,736.833 1143.5,743.5C 1142.02,743.762 1140.69,743.429 1139.5,742.5C 1137.97,736.118 1133.97,733.784 1127.5,735.5C 1127.33,741.509 1127.5,747.509 1128,753.5C 1128.5,754 1129,754.5 1129.5,755C 1140.3,758.669 1146.97,755.169 1149.5,744.5C 1151.29,744.215 1152.95,744.548 1154.5,745.5C 1153.56,750.1 1153.22,754.767 1153.5,759.5C 1139.5,759.5 1125.5,759.5 1111.5,759.5C 1111.5,758.5 1111.5,757.5 1111.5,756.5C 1114.04,756.896 1116.21,756.229 1118,754.5C 1118.67,741.167 1118.67,727.833 1118,714.5C 1116.1,712.984 1113.94,712.317 1111.5,712.5C 1111.5,711.5 1111.5,710.5 1111.5,709.5 Z"/></g>
<g><path style="opacity:1" fill="#0f1110" d="M 1159.5,709.5 C 1168.84,709.334 1178.17,709.5 1187.5,710C 1196.68,711.857 1200.18,717.357 1198,726.5C 1196.83,731.667 1193.67,734.833 1188.5,736C 1184.25,737.195 1179.92,737.695 1175.5,737.5C 1175.33,743.176 1175.5,748.843 1176,754.5C 1177.79,756.229 1179.96,756.896 1182.5,756.5C 1182.5,757.5 1182.5,758.5 1182.5,759.5C 1175.17,759.5 1167.83,759.5 1160.5,759.5C 1160.5,758.5 1160.5,757.5 1160.5,756.5C 1162.72,756.822 1164.56,756.155 1166,754.5C 1166.67,741.167 1166.67,727.833 1166,714.5C 1164.21,712.771 1162.04,712.104 1159.5,712.5C 1159.5,711.5 1159.5,710.5 1159.5,709.5 Z"/></g>
<g><path style="opacity:1" fill="#0f1010" d="M 1203.5,709.5 C 1216.5,709.5 1229.5,709.5 1242.5,709.5C 1242.5,713.833 1242.5,718.167 1242.5,722.5C 1241.02,722.762 1239.69,722.429 1238.5,721.5C 1234.48,713.93 1228.15,711.263 1219.5,713.5C 1219.5,719.5 1219.5,725.5 1219.5,731.5C 1225.97,733.216 1229.97,730.882 1231.5,724.5C 1232.69,723.571 1234.02,723.238 1235.5,723.5C 1235.5,730.167 1235.5,736.833 1235.5,743.5C 1234.02,743.762 1232.69,743.429 1231.5,742.5C 1229.97,736.118 1225.97,733.784 1219.5,735.5C 1219.33,741.509 1219.5,747.509 1220,753.5C 1220.5,754 1221,754.5 1221.5,755C 1232.3,758.669 1238.97,755.169 1241.5,744.5C 1243.29,744.215 1244.95,744.548 1246.5,745.5C 1245.56,750.1 1245.22,754.767 1245.5,759.5C 1231.5,759.5 1217.5,759.5 1203.5,759.5C 1203.5,758.5 1203.5,757.5 1203.5,756.5C 1206.04,756.896 1208.21,756.229 1210,754.5C 1210.67,741.167 1210.67,727.833 1210,714.5C 1208.1,712.984 1205.94,712.317 1203.5,712.5C 1203.5,711.5 1203.5,710.5 1203.5,709.5 Z"/></g>
<g><path style="opacity:1" fill="#4aa880" d="M 932.5,712.5 C 941.82,711.971 947.653,716.304 950,725.5C 950.667,731.5 950.667,737.5 950,743.5C 947.314,754.238 940.814,758.071 930.5,755C 926.339,751.846 923.839,747.679 923,742.5C 919.761,730.219 922.928,720.219 932.5,712.5 Z"/></g>
<g><path style="opacity:1" fill="#4aa77f" d="M 777.5,713.5 C 787.105,711.939 791.271,715.939 790,725.5C 787.371,730.564 783.204,732.564 777.5,731.5C 777.5,725.5 777.5,719.5 777.5,713.5 Z"/></g>
<g><path style="opacity:1" fill="#4aa880" d="M 874.5,713.5 C 889.013,713.175 896.679,720.342 897.5,735C 897.819,744.378 893.819,751.044 885.5,755C 881.756,755.929 878.256,755.429 875,753.5C 874.5,740.171 874.333,726.837 874.5,713.5 Z"/></g>
<g><path style="opacity:1" fill="#4aa880" d="M 1082.5,713.5 C 1092.43,712.931 1096.59,717.598 1095,727.5C 1092.37,732.564 1088.2,734.564 1082.5,733.5C 1082.5,726.833 1082.5,720.167 1082.5,713.5 Z"/></g>
<g><path style="opacity:1" fill="#4aa880" d="M 1175.5,713.5 C 1185.43,712.931 1189.59,717.598 1188,727.5C 1185.37,732.564 1181.2,734.564 1175.5,733.5C 1175.5,726.833 1175.5,720.167 1175.5,713.5 Z"/></g>
<g><path style="opacity:1" fill="#f2f2d9" d="M 381.5,717.5 C 402.435,714.95 416.268,723.616 423,743.5C 425.604,763.132 417.771,776.632 399.5,784C 379.515,788.091 365.348,780.925 357,762.5C 352.144,740.2 360.311,725.2 381.5,717.5 Z"/></g>
<g><path style="opacity:1" fill="#4eac83" d="M 384.5,722.5 C 407.648,722.824 418.481,734.49 417,757.5C 409.184,777.158 395.351,783.324 375.5,776C 361.304,765.72 357.804,752.553 365,736.5C 370.012,729.639 376.512,724.972 384.5,722.5 Z"/></g>
<g><path style="opacity:1" fill="#47a17b" d="M 828.5,724.5 C 831.551,728.614 833.551,733.28 834.5,738.5C 830.774,738.823 827.107,738.489 823.5,737.5C 824.979,733.06 826.645,728.726 828.5,724.5 Z"/></g>
<g><path style="opacity:1" fill="#4aa980" d="M 777.5,735.5 C 788.542,734.044 793.376,738.711 792,749.5C 788.606,755.596 783.939,756.93 778,753.5C 777.501,747.509 777.334,741.509 777.5,735.5 Z"/></g>
<g><path style="opacity:1" fill="#101312" d="M 834.5,783.5 C 836.144,783.286 837.644,783.62 839,784.5C 844.333,798.5 849.667,812.5 855,826.5C 856.571,828.923 858.737,830.256 861.5,830.5C 861.5,831.5 861.5,832.5 861.5,833.5C 854.167,833.5 846.833,833.5 839.5,833.5C 839.5,832.5 839.5,831.5 839.5,830.5C 841.467,830.739 843.301,830.406 845,829.5C 845.07,825.036 843.903,820.869 841.5,817C 836.5,816.333 831.5,816.333 826.5,817C 824.413,820.587 823.579,824.42 824,828.5C 825.789,830.229 827.956,830.896 830.5,830.5C 830.5,831.5 830.5,832.5 830.5,833.5C 823.833,833.5 817.167,833.5 810.5,833.5C 810.5,832.5 810.5,831.5 810.5,830.5C 813.099,830.451 815.266,829.451 817,827.5C 822.743,812.765 828.577,798.098 834.5,783.5 Z"/></g>
<g><path style="opacity:1" fill="#0f1211" d="M 863.5,783.5 C 872.506,783.334 881.506,783.5 890.5,784C 900.223,785.39 904.057,790.89 902,800.5C 899.574,804.759 896.074,807.759 891.5,809.5C 895.895,816.451 900.895,822.951 906.5,829C 908.025,830.009 909.692,830.509 911.5,830.5C 911.5,831.5 911.5,832.5 911.5,833.5C 906.456,833.827 901.456,833.494 896.5,832.5C 892.223,825.557 887.556,818.89 882.5,812.5C 881.311,811.571 879.978,811.238 878.5,811.5C 878.334,817.176 878.501,822.843 879,828.5C 880.789,830.229 882.956,830.896 885.5,830.5C 885.5,831.5 885.5,832.5 885.5,833.5C 878.167,833.5 870.833,833.5 863.5,833.5C 863.5,832.5 863.5,831.5 863.5,830.5C 865.722,830.822 867.556,830.155 869,828.5C 869.667,815.167 869.667,801.833 869,788.5C 867.556,786.845 865.722,786.178 863.5,786.5C 863.5,785.5 863.5,784.5 863.5,783.5 Z"/></g>
<g><path style="opacity:1" fill="#0f1111" d="M 957.5,828.5 C 958.659,817.341 958.826,806.008 958,794.5C 957.209,795.745 956.709,797.078 956.5,798.5C 951.772,809.684 947.439,821.017 943.5,832.5C 941.549,832.773 940.049,832.107 939,830.5C 934.82,818.812 930.653,807.146 926.5,795.5C 926.44,794.957 926.107,794.624 925.5,794.5C 924.178,803.992 924.178,813.325 925.5,822.5C 925.151,828.151 927.817,830.817 933.5,830.5C 933.5,831.5 933.5,832.5 933.5,833.5C 926.5,833.5 919.5,833.5 912.5,833.5C 912.5,832.5 912.5,831.5 912.5,830.5C 916.17,830.673 918.67,829.007 920,825.5C 920.667,813.833 920.667,802.167 920,790.5C 918.285,787.603 915.785,786.269 912.5,786.5C 912.5,785.5 912.5,784.5 912.5,783.5C 918.758,783.19 924.924,783.524 931,784.5C 935.343,795.534 939.676,806.534 944,817.5C 948.669,806.323 952.836,794.99 956.5,783.5C 962.167,783.5 967.833,783.5 973.5,783.5C 973.5,784.5 973.5,785.5 973.5,786.5C 971.278,786.178 969.444,786.845 968,788.5C 967.333,801.833 967.333,815.167 968,828.5C 969.444,830.155 971.278,830.822 973.5,830.5C 973.5,831.5 973.5,832.5 973.5,833.5C 965.833,833.5 958.167,833.5 950.5,833.5C 950.5,832.5 950.5,831.5 950.5,830.5C 952.527,830.662 954.527,830.495 956.5,830C 957.056,829.617 957.389,829.117 957.5,828.5 Z"/></g>
<g><path style="opacity:1" fill="#101312" d="M 976.5,783.5 C 983.833,783.5 991.167,783.5 998.5,783.5C 998.5,784.5 998.5,785.5 998.5,786.5C 996.5,786.5 994.5,786.5 992.5,786.5C 994.822,793.481 997.989,800.148 1002,806.5C 1005.69,801.119 1008.86,795.452 1011.5,789.5C 1011.39,788.558 1011.06,787.725 1010.5,787C 1008.87,786.506 1007.2,786.34 1005.5,786.5C 1005.5,785.5 1005.5,784.5 1005.5,783.5C 1011.83,783.5 1018.17,783.5 1024.5,783.5C 1024.5,784.5 1024.5,785.5 1024.5,786.5C 1022.04,786.781 1019.87,787.781 1018,789.5C 1013.16,796.504 1008.83,803.837 1005,811.5C 1004.33,817.167 1004.33,822.833 1005,828.5C 1006.9,830.016 1009.06,830.683 1011.5,830.5C 1011.5,831.5 1011.5,832.5 1011.5,833.5C 1003.5,833.5 995.5,833.5 987.5,833.5C 987.5,832.5 987.5,831.5 987.5,830.5C 990.365,830.945 992.865,830.278 995,828.5C 995.667,823.5 995.667,818.5 995,813.5C 990.982,803.96 985.815,795.127 979.5,787C 978.552,786.517 977.552,786.351 976.5,786.5C 976.5,785.5 976.5,784.5 976.5,783.5 Z"/></g>
<g><path style="opacity:1" fill="#4aa77f" d="M 878.5,787.5 C 889.861,786.686 894.028,791.686 891,802.5C 887.907,806.795 883.74,808.462 878.5,807.5C 878.5,800.833 878.5,794.167 878.5,787.5 Z"/></g>
<g><path style="opacity:1" fill="#234939" d="M 926.5,795.5 C 925.507,804.318 925.173,813.318 925.5,822.5C 924.178,813.325 924.178,803.992 925.5,794.5C 926.107,794.624 926.44,794.957 926.5,795.5 Z"/></g>
<g><path style="opacity:1" fill="#3c8868" d="M 957.5,828.5 C 957.827,818.319 957.494,808.319 956.5,798.5C 956.709,797.078 957.209,795.745 958,794.5C 958.826,806.008 958.659,817.341 957.5,828.5 Z"/></g>
<g><path style="opacity:1" fill="#47a17b" d="M 833.5,798.5 C 836.551,802.614 838.551,807.28 839.5,812.5C 835.774,812.823 832.107,812.489 828.5,811.5C 829.979,807.06 831.645,802.726 833.5,798.5 Z"/></g>
<g><path style="opacity:1" fill="#f6f3db" d="M 222.5,833.5 C 234.149,836.217 245.482,840.05 256.5,845C 260.715,849.958 260.381,854.625 255.5,859C 252.833,859.667 250.167,859.667 247.5,859C 238.833,855.667 230.167,852.333 221.5,849C 215.964,843.404 216.297,838.237 222.5,833.5 Z"/></g>
<g><path style="opacity:1" fill="#f6f3db" d="M 279.5,855.5 C 281.527,855.338 283.527,855.505 285.5,856C 294.423,859.53 303.423,862.863 312.5,866C 316.277,868.955 317.443,872.788 316,877.5C 312.95,881.13 309.117,882.297 304.5,881C 295.386,877.61 286.386,873.943 277.5,870C 273.128,864.408 273.794,859.575 279.5,855.5 Z"/></g>
<g><path style="opacity:1" fill="#f3f2d9" d="M 457.5,876.5 C 461.976,876.8 463.31,878.967 461.5,883C 455.36,883.808 454.027,881.641 457.5,876.5 Z"/></g>
<g><path style="opacity:1" fill="#edf0d7" d="M 437.5,885.5 C 443.148,885.311 444.482,887.478 441.5,892C 435.738,892.418 434.404,890.251 437.5,885.5 Z"/></g>
<g><path style="opacity:1" fill="#edf0d6" d="M 481.5,887.5 C 487.148,887.311 488.482,889.478 485.5,894C 479.738,894.418 478.404,892.251 481.5,887.5 Z"/></g>
<g><path style="opacity:1" fill="#eff1d8" d="M 419.5,893.5 C 425.016,893.473 426.349,895.64 423.5,900C 417.738,900.418 416.404,898.251 419.5,893.5 Z"/></g>
<g><path style="opacity:1" fill="#eff1d8" d="M 463.5,895.5 C 469.016,895.473 470.349,897.64 467.5,902C 461.738,902.418 460.404,900.251 463.5,895.5 Z"/></g>
<g><path style="opacity:1" fill="#edf0d7" d="M 401.5,902.5 C 405.605,902.496 407.105,904.496 406,908.5C 402.828,911.388 400.661,910.722 399.5,906.5C 399.752,904.927 400.418,903.594 401.5,902.5 Z"/></g>
<g><path style="opacity:1" fill="#f5f3da" d="M 446.5,904.5 C 451.328,904.385 452.661,906.552 450.5,911C 444.738,911.418 443.404,909.251 446.5,904.5 Z"/></g>
<g><path style="opacity:1" fill="#eff1d8" d="M 490.5,906.5 C 496.016,906.473 497.349,908.64 494.5,913C 488.738,913.418 487.404,911.251 490.5,906.5 Z"/></g>
<g><path style="opacity:1" fill="#eff1d8" d="M 427.5,912.5 C 430.352,912.352 432.019,913.686 432.5,916.5C 430.167,921.833 427.833,921.833 425.5,916.5C 425.752,914.927 426.418,913.594 427.5,912.5 Z"/></g>
<g><path style="opacity:1" fill="#eff1d8" d="M 471.5,914.5 C 474.352,914.352 476.019,915.686 476.5,918.5C 474.167,923.833 471.833,923.833 469.5,918.5C 469.752,916.927 470.418,915.594 471.5,914.5 Z"/></g>
<g><path style="opacity:1" fill="#edf0d7" d="M 408.5,921.5 C 414.158,920.679 415.825,922.846 413.5,928C 407.741,929.139 406.074,926.972 408.5,921.5 Z"/></g>
<g><path style="opacity:1" fill="#eff1d8" d="M 454.5,921.5 C 457.352,921.352 459.019,922.686 459.5,925.5C 457.167,930.833 454.833,930.833 452.5,925.5C 452.752,923.927 453.418,922.594 454.5,921.5 Z"/></g>
<g><path style="opacity:1" fill="#eff0d7" d="M 390.5,930.5 C 396.016,930.473 397.349,932.64 394.5,937C 388.738,937.418 387.404,935.251 390.5,930.5 Z"/></g>
<g><path style="opacity:1" fill="#f0f1d8" d="M 436.5,929.5 C 439.352,929.352 441.019,930.686 441.5,933.5C 439.167,938.833 436.833,938.833 434.5,933.5C 434.752,931.927 435.418,930.594 436.5,929.5 Z"/></g>
<g><path style="opacity:1" fill="#e2ebd1" d="M 480.5,931.5 C 486.488,931.664 487.821,934.164 484.5,939C 478.403,939.147 477.07,936.647 480.5,931.5 Z"/></g>
<g><path style="opacity:1" fill="#f4f3da" d="M 416.5,940.5 C 421.328,940.385 422.661,942.552 420.5,947C 414.738,947.418 413.404,945.251 416.5,940.5 Z"/></g>
<g><path style="opacity:1" fill="#edf0d6" d="M 463.5,940.5 C 466.352,940.352 468.019,941.686 468.5,944.5C 466.43,949.586 464.096,949.753 461.5,945C 461.519,943.167 462.185,941.667 463.5,940.5 Z"/></g>
<g><path style="opacity:1" fill="#f2f2d9" d="M 398.5,948.5 C 402.935,948.752 404.268,950.919 402.5,955C 396.339,955.878 395.006,953.711 398.5,948.5 Z"/></g>
<g><path style="opacity:1" fill="#edf0d7" d="M 443.5,949.5 C 449.016,949.473 450.349,951.64 447.5,956C 441.681,956.526 440.348,954.359 443.5,949.5 Z"/></g>
<g><path style="opacity:1" fill="#f2f2d9" d="M 424.5,957.5 C 430.158,956.679 431.825,958.846 429.5,964C 424.279,964.61 422.612,962.443 424.5,957.5 Z"/></g>
</svg>
