<?xml version="1.0" encoding="UTF-8"?>
<!DOCTYPE svg PUBLIC "-//W3C//DTD SVG 1.1//EN" "http://www.w3.org/Graphics/SVG/1.1/DTD/svg11.dtd">
<svg xmlns="http://www.w3.org/2000/svg" version="1.1" width="408px" height="408px" style="shape-rendering:geometricPrecision; text-rendering:geometricPrecision; image-rendering:optimizeQuality; fill-rule:evenodd; clip-rule:evenodd" xmlns:xlink="http://www.w3.org/1999/xlink">
<g><path style="opacity:0.999" fill="#f8f4dc" d="M 314.5,88.5 C 315.594,90.3594 316.427,92.3594 317,94.5C 317.667,162.5 317.667,230.5 317,298.5C 315.343,307.488 310.177,313.321 301.5,316C 232.167,316.667 162.833,316.667 93.5,316C 91.5932,314.878 89.5932,314.045 87.5,313.5C 83.3833,310.876 80.55,307.21 79,302.5C 78.3333,232.5 78.3333,162.5 79,92.5C 82.0309,84.7993 87.5309,79.966 95.5,78C 163.833,77.3333 232.167,77.3333 300.5,78C 306.885,79.3444 311.552,82.8444 314.5,88.5 Z"/></g>
<g><path style="opacity:0.942" fill="#2e2e2e" d="M 314.5,88.5 C 322.756,92.9753 327.59,99.9753 329,109.5C 329.667,174.5 329.667,239.5 329,304.5C 326.283,317.55 318.45,325.717 305.5,329C 239.833,329.667 174.167,329.667 108.5,329C 98.5293,327.697 91.5293,322.531 87.5,313.5C 89.5932,314.045 91.5932,314.878 93.5,316C 162.833,316.667 232.167,316.667 301.5,316C 310.177,313.321 315.343,307.488 317,298.5C 317.667,230.5 317.667,162.5 317,94.5C 316.427,92.3594 315.594,90.3594 314.5,88.5 Z"/></g>
<g><path style="opacity:1" fill="#4cac83" d="M 178.5,96.5 C 232.468,92.2235 271.301,114.223 295,162.5C 311.694,210.891 301.194,252.391 263.5,287C 228.242,313.163 190.242,317.829 149.5,301C 102.153,275.14 82.3201,235.306 90,181.5C 102.078,134.92 131.578,106.587 178.5,96.5 Z"/></g>
<g><path style="opacity:1" fill="#fdfefd" d="M 185.5,241.5 C 178.985,236.741 172.652,231.741 166.5,226.5C 166.389,225.883 166.056,225.383 165.5,225C 187,205.5 208.5,186 230,166.5C 230.483,165.552 230.649,164.552 230.5,163.5C 226.873,164.28 223.54,165.78 220.5,168C 196.167,183.667 171.833,199.333 147.5,215C 145.575,214.865 143.575,214.698 141.5,214.5C 130.745,211.526 120.078,208.026 109.5,204C 106.476,201.525 105.81,198.525 107.5,195C 151.794,175.235 196.794,157.235 242.5,141C 246.314,139.086 250.314,138.419 254.5,139C 256.028,140.648 256.695,142.648 256.5,145C 249.778,185.946 241.278,226.446 231,266.5C 227.817,268.523 224.317,269.023 220.5,268C 208.938,258.926 197.271,250.093 185.5,241.5 Z"/></g>
<g><path style="opacity:1" fill="#c9deec" d="M 166.5,226.5 C 163.307,237.674 161.64,249.341 161.5,261.5C 162.5,261.5 163.5,261.5 164.5,261.5C 162.006,263.077 160.173,262.41 159,259.5C 154.67,245.844 150.337,232.178 146,218.5C 145.093,216.391 143.593,215.058 141.5,214.5C 143.575,214.698 145.575,214.865 147.5,215C 171.833,199.333 196.167,183.667 220.5,168C 223.54,165.78 226.873,164.28 230.5,163.5C 230.649,164.552 230.483,165.552 230,166.5C 208.5,186 187,205.5 165.5,225C 166.056,225.383 166.389,225.883 166.5,226.5 Z"/></g>
<g><path style="opacity:1" fill="#9ec1dd" d="M 166.5,226.5 C 172.652,231.741 178.985,236.741 185.5,241.5C 182.5,243.833 179.833,246.5 177.5,249.5C 172.56,252.77 168.227,256.77 164.5,261.5C 163.5,261.5 162.5,261.5 161.5,261.5C 161.64,249.341 163.307,237.674 166.5,226.5 Z"/></g>
<g><path style="opacity:1" fill="#9acbb5" d="M 177.5,249.5 C 173.773,254.23 169.44,258.23 164.5,261.5C 168.227,256.77 172.56,252.77 177.5,249.5 Z"/></g>
</svg>
