<?xml version="1.0" encoding="UTF-8"?>
<!DOCTYPE svg PUBLIC "-//W3C//DTD SVG 1.1//EN" "http://www.w3.org/Graphics/SVG/1.1/DTD/svg11.dtd">
<svg xmlns="http://www.w3.org/2000/svg" version="1.1" width="408px" height="408px" style="shape-rendering:geometricPrecision; text-rendering:geometricPrecision; image-rendering:optimizeQuality; fill-rule:evenodd; clip-rule:evenodd" xmlns:xlink="http://www.w3.org/1999/xlink">
<g><path style="opacity:0.997" fill="#f7f3db" d="M 296.5,90.5 C 307.481,100.456 314.314,112.789 317,127.5C 317.667,173.833 317.667,220.167 317,266.5C 311.7,294.8 294.867,311.3 266.5,316C 219.5,316.667 172.5,316.667 125.5,316C 110.207,312.694 97.8732,304.861 88.5,292.5C 83.5031,285.698 80.3364,278.031 79,269.5C 78.3333,221.167 78.3333,172.833 79,124.5C 83.5567,103.61 95.7234,89.1103 115.5,81C 119.723,79.5275 124.057,78.5275 128.5,78C 174.833,77.3333 221.167,77.3333 267.5,78C 278.431,79.471 288.097,83.6377 296.5,90.5 Z"/></g>
<g><path style="opacity:0.946" fill="#2f2f2f" d="M 296.5,90.5 C 316.49,100.106 327.324,116.106 329,138.5C 329.667,184.167 329.667,229.833 329,275.5C 325.548,305.952 308.715,323.786 278.5,329C 230.5,329.667 182.5,329.667 134.5,329C 111.891,325.88 96.5575,313.714 88.5,292.5C 97.8732,304.861 110.207,312.694 125.5,316C 172.5,316.667 219.5,316.667 266.5,316C 294.867,311.3 311.7,294.8 317,266.5C 317.667,220.167 317.667,173.833 317,127.5C 314.314,112.789 307.481,100.456 296.5,90.5 Z"/></g>
<g><path style="opacity:1" fill="#4dac83" d="M 177.5,95.5 C 218.986,88.8837 253.986,100.55 282.5,130.5C 283.001,133.667 284.667,136.001 287.5,137.5C 292.212,143.903 296.212,150.903 299.5,158.5C 300.718,163.146 301.718,167.812 302.5,172.5C 303.5,172.5 304.5,172.5 305.5,172.5C 307.249,189.433 307.915,206.433 307.5,223.5C 306.5,223.5 305.5,223.5 304.5,223.5C 304.454,228.353 303.454,233.02 301.5,237.5C 298.494,244.843 295.494,252.177 292.5,259.5C 290.39,263.348 287.556,266.681 284,269.5C 280.277,275.231 275.777,280.398 270.5,285C 266.973,286.032 264.639,288.198 263.5,291.5C 260.031,290.887 258.031,292.221 257.5,295.5C 248.228,298.824 238.894,302.158 229.5,305.5C 226.914,306.48 224.247,306.813 221.5,306.5C 221.5,307.5 221.5,308.5 221.5,309.5C 207.151,309.833 192.818,309.499 178.5,308.5C 178.291,307.914 177.957,307.414 177.5,307C 165.123,304.871 153.457,300.705 142.5,294.5C 138.183,290.877 133.517,287.544 128.5,284.5C 92.6774,249.536 83.0107,208.203 99.5,160.5C 114.841,126.147 140.841,104.481 177.5,95.5 Z"/></g>
<g><path style="opacity:0.974" fill="#bcded3" d="M 249.5,148.5 C 243.077,145.94 236.41,145.107 229.5,146C 226.305,148.554 222.638,150.054 218.5,150.5C 218.856,149.13 219.69,148.13 221,147.5C 228.596,144.66 236.429,143.826 244.5,145C 246.431,145.902 248.097,147.069 249.5,148.5 Z"/></g>
<g><path style="opacity:1" fill="#fbfdfd" d="M 249.5,148.5 C 250.552,148.351 251.552,148.517 252.5,149C 254.102,151.111 256.102,152.611 258.5,153.5C 264.276,151.777 269.943,149.777 275.5,147.5C 275.386,149.718 274.72,151.718 273.5,153.5C 269.849,155.47 267.849,158.47 267.5,162.5C 268.833,162.5 270.167,162.5 271.5,162.5C 272.5,162.5 273.5,162.5 274.5,162.5C 272.947,167.224 269.78,170.557 265,172.5C 264.501,177.489 264.334,182.489 264.5,187.5C 262.049,195.619 259.715,203.952 257.5,212.5C 248.411,231.423 234.411,245.59 215.5,255C 212.379,256.608 209.046,257.441 205.5,257.5C 203.883,258.038 202.216,258.371 200.5,258.5C 190.849,259.199 181.183,259.532 171.5,259.5C 170.833,259.5 170.167,259.5 169.5,259.5C 160.327,257.705 151.66,254.371 143.5,249.5C 146.642,248.833 149.642,248.166 152.5,247.5C 161.576,245.143 170.243,241.809 178.5,237.5C 180.549,237.294 180.883,236.461 179.5,235C 177.5,234.667 175.5,234.333 173.5,234C 170.467,231.792 167.134,230.292 163.5,229.5C 158.185,226.164 154.852,221.497 153.5,215.5C 155.833,215.5 158.167,215.5 160.5,215.5C 161.919,216.451 163.585,216.784 165.5,216.5C 165.616,213.09 163.95,211.756 160.5,212.5C 159.833,212.167 159.167,211.833 158.5,211.5C 154.925,209.271 151.592,206.605 148.5,203.5C 146.902,201.302 145.569,198.969 144.5,196.5C 144.656,193.934 144.322,191.434 143.5,189C 143.836,187.97 144.503,187.47 145.5,187.5C 147.693,188.797 150.027,188.797 152.5,187.5C 150.243,183.988 147.743,180.654 145,177.5C 144.51,176.207 144.343,174.873 144.5,173.5C 143.061,167.119 143.228,160.786 145,154.5C 145.759,152.937 146.926,151.937 148.5,151.5C 156.053,160.389 165.053,167.389 175.5,172.5C 181.349,176.732 188.016,178.732 195.5,178.5C 199.029,180.423 203.029,181.089 207.5,180.5C 208.327,175.015 208.827,169.348 209,163.5C 210.12,161.97 210.954,160.303 211.5,158.5C 212.45,154.587 214.783,151.92 218.5,150.5C 222.638,150.054 226.305,148.554 229.5,146C 236.41,145.107 243.077,145.94 249.5,148.5 Z"/></g>
<g><path style="opacity:1" fill="#8bc8b0" d="M 273.5,153.5 C 272.627,155.886 271.127,157.886 269,159.5C 268.312,160.332 268.479,160.998 269.5,161.5C 272.565,159.75 275.898,158.75 279.5,158.5C 279.771,160.38 279.104,161.713 277.5,162.5C 277.209,161.351 276.376,160.684 275,160.5C 273.301,160.387 272.134,161.053 271.5,162.5C 270.167,162.5 268.833,162.5 267.5,162.5C 267.849,158.47 269.849,155.47 273.5,153.5 Z"/></g>
<g><path style="opacity:0.993" fill="#9ccfbe" d="M 148.5,151.5 C 146.926,151.937 145.759,152.937 145,154.5C 143.228,160.786 143.061,167.119 144.5,173.5C 143.778,173.082 143.278,172.416 143,171.5C 142.081,165.034 142.581,158.701 144.5,152.5C 145.714,150.62 147.048,150.287 148.5,151.5 Z"/></g>
<g><path style="opacity:1" fill="#b9ddd3" d="M 211.5,158.5 C 210.954,160.303 210.12,161.97 209,163.5C 208.827,169.348 208.327,175.015 207.5,180.5C 206.238,175.819 206.238,171.152 207.5,166.5C 207.609,163.101 208.942,160.434 211.5,158.5 Z"/></g>
<g><path style="opacity:1" fill="#bedfd4" d="M 277.5,162.5 C 274.862,167.302 271.029,170.969 266,173.5C 265.826,178.351 265.326,183.018 264.5,187.5C 264.334,182.489 264.501,177.489 265,172.5C 269.78,170.557 272.947,167.224 274.5,162.5C 273.5,162.5 272.5,162.5 271.5,162.5C 272.134,161.053 273.301,160.387 275,160.5C 276.376,160.684 277.209,161.351 277.5,162.5 Z"/></g>
<g><path style="opacity:1" fill="#9acebc" d="M 175.5,172.5 C 182.28,174.719 188.946,176.719 195.5,178.5C 188.016,178.732 181.349,176.732 175.5,172.5 Z"/></g>
<g><path style="opacity:1" fill="#8ec9b3" d="M 207.5,166.5 C 206.238,171.152 206.238,175.819 207.5,180.5C 203.029,181.089 199.029,180.423 195.5,178.5C 198.807,179.051 202.14,179.384 205.5,179.5C 205.334,175.486 205.501,171.486 206,167.5C 206.383,166.944 206.883,166.611 207.5,166.5 Z"/></g>
<g><path style="opacity:1" fill="#aed8cb" d="M 145.5,187.5 C 144.503,187.47 143.836,187.97 143.5,189C 144.322,191.434 144.656,193.934 144.5,196.5C 143.778,196.082 143.278,195.416 143,194.5C 142.503,191.854 142.336,189.187 142.5,186.5C 143.791,186.263 144.791,186.596 145.5,187.5 Z"/></g>
<g><path style="opacity:1" fill="#b6dbcf" d="M 264.5,187.5 C 264.125,196.594 261.792,204.928 257.5,212.5C 259.715,203.952 262.049,195.619 264.5,187.5 Z"/></g>
<g><path style="opacity:1" fill="#9acfbc" d="M 148.5,203.5 C 151.592,206.605 154.925,209.271 158.5,211.5C 153.672,210.669 150.338,208.002 148.5,203.5 Z"/></g>
<g><path style="opacity:1" fill="#bbe0fa" d="M 160.5,212.5 C 163.95,211.756 165.616,213.09 165.5,216.5C 163.585,216.784 161.919,216.451 160.5,215.5C 160.5,214.5 160.5,213.5 160.5,212.5 Z"/></g>
<g><path style="opacity:1" fill="#c0e0d6" d="M 163.5,229.5 C 167.134,230.292 170.467,231.792 173.5,234C 175.5,234.333 177.5,234.667 179.5,235C 180.883,236.461 180.549,237.294 178.5,237.5C 175.657,235.599 172.324,234.433 168.5,234C 166.382,232.951 164.716,231.451 163.5,229.5 Z"/></g>
<g><path style="opacity:1" fill="#c5e3d9" d="M 152.5,247.5 C 149.642,248.166 146.642,248.833 143.5,249.5C 151.66,254.371 160.327,257.705 169.5,259.5C 168.5,259.5 167.5,259.5 166.5,259.5C 156.264,257.807 146.93,254.14 138.5,248.5C 143.12,247.507 147.786,247.173 152.5,247.5 Z"/></g>
<g><path style="opacity:1" fill="#c5e2dc" d="M 200.5,258.5 C 194.559,259.911 188.392,260.577 182,260.5C 178.317,260.499 174.817,260.165 171.5,259.5C 181.183,259.532 190.849,259.199 200.5,258.5 Z"/></g>
<g><path style="opacity:1" fill="#8ec9b5" d="M 205.5,257.5 C 203.042,259.713 200.042,260.879 196.5,261C 187.5,261.667 178.5,261.667 169.5,261C 168.263,260.768 167.263,260.268 166.5,259.5C 167.5,259.5 168.5,259.5 169.5,259.5C 170.167,259.5 170.833,259.5 171.5,259.5C 174.817,260.165 178.317,260.499 182,260.5C 188.392,260.577 194.559,259.911 200.5,258.5C 202.216,258.371 203.883,258.038 205.5,257.5 Z"/></g>
</svg>
