<?xml version="1.0" encoding="UTF-8"?>
<!DOCTYPE svg PUBLIC "-//W3C//DTD SVG 1.1//EN" "http://www.w3.org/Graphics/SVG/1.1/DTD/svg11.dtd">
<svg xmlns="http://www.w3.org/2000/svg" version="1.1" width="1322px" height="1061px" style="shape-rendering:geometricPrecision; text-rendering:geometricPrecision; image-rendering:optimizeQuality; fill-rule:evenodd; clip-rule:evenodd" xmlns:xlink="http://www.w3.org/1999/xlink">
<g><path style="opacity:0.988" fill="#2e2e2e" d="M 344.5,-0.5 C 560.167,-0.5 775.833,-0.5 991.5,-0.5C 1105.38,11.6662 1193.21,65.6662 1255,161.5C 1268.09,185.446 1280.43,209.779 1292,234.5C 1308.28,271.305 1318.12,309.639 1321.5,349.5C 1321.5,483.167 1321.5,616.833 1321.5,750.5C 1309.83,865.74 1255.16,953.906 1157.5,1015C 1113.09,1040.75 1065.43,1055.91 1014.5,1060.5C 798.167,1060.5 581.833,1060.5 365.5,1060.5C 269.539,1050.61 191.039,1008.61 130,934.5C 118.769,917.934 106.769,901.934 94,886.5C 58.4276,835.46 38.0942,778.793 33,716.5C 32.3333,581.5 32.3333,446.5 33,311.5C 45.4419,192.694 102.609,102.861 204.5,42C 248.306,18.0059 294.973,3.83919 344.5,-0.5 Z"/></g>
<g><path style="opacity:1" fill="#4cab82" d="M 40.5,348.5 C 53.2474,345.253 63.4141,338.253 71,327.5C 112.914,400.33 155.081,472.997 197.5,545.5C 202.982,550.218 209.315,551.718 216.5,550C 273.242,539.513 330.242,537.846 387.5,545C 417.655,549.621 446.655,558.121 474.5,570.5C 483.189,568.612 486.356,563.279 484,554.5C 467.732,533.512 454.732,510.512 445,485.5C 422.842,425.523 410.509,363.523 408,299.5C 405.833,292 401,287.167 393.5,285C 317.034,261.733 240.701,238.067 164.5,214C 171.497,206.669 177.331,198.502 182,189.5C 186.917,177.676 186.584,166.009 181,154.5C 169.38,139.211 157.38,124.211 145,109.5C 143.301,108.594 141.467,108.261 139.5,108.5C 139.34,110.199 139.506,111.866 140,113.5C 149.667,124.833 159.333,136.167 169,147.5C 182.944,164.804 182.944,182.137 169,199.5C 134.333,241.5 99.6667,283.5 65,325.5C 58.7403,334.036 50.5737,339.703 40.5,342.5C 41.3999,233.876 83.7332,145.376 167.5,77C 221.026,35.7057 281.693,12.7057 349.5,8C 566.177,7.01792 782.844,7.35125 999.5,9C 1110.2,23.8037 1194.37,78.6371 1252,173.5C 1274.82,213.957 1288.82,257.29 1294,303.5C 1295.14,373.152 1295.64,442.818 1295.5,512.5C 1295.33,577.833 1295.17,643.167 1295,708.5C 1284.47,829.577 1226.97,920.41 1122.5,981C 1078.69,1004.29 1032.02,1017.29 982.5,1020C 769.833,1020.67 557.167,1020.67 344.5,1020C 230.963,1007.69 144.463,953.189 85,856.5C 58.6899,810.257 44.0232,760.59 41,707.5C 40.5,587.834 40.3333,468.167 40.5,348.5 Z"/></g>
<g><path style="opacity:1" fill="#f2f2d9" d="M 1041.5,52.5 C 1059.65,51.1477 1067.81,59.481 1066,77.5C 1059.27,90.2803 1049.44,93.447 1036.5,87C 1026.71,77.5686 1026.04,67.5686 1034.5,57C 1036.9,55.4758 1039.23,53.9758 1041.5,52.5 Z"/></g>
<g><path style="opacity:1" fill="#f2f2d9" d="M 935.5,53.5 C 953.617,52.1169 961.784,60.4502 960,78.5C 954.631,90.063 945.797,93.8964 933.5,90C 921.017,81.1242 919.35,70.6242 928.5,58.5C 930.724,56.566 933.058,54.8994 935.5,53.5 Z"/></g>
<g><path style="opacity:1" fill="#f2f2d9" d="M 989.5,53.5 C 1007.62,52.1169 1015.78,60.4502 1014,78.5C 1008.63,90.063 999.797,93.8964 987.5,90C 975.017,81.1242 973.35,70.6242 982.5,58.5C 984.724,56.566 987.058,54.8994 989.5,53.5 Z"/></g>
<g><path style="opacity:1" fill="#4fad84" d="M 1044.5,57.5 C 1056.43,57.7071 1061.6,63.7071 1060,75.5C 1054.49,85.1915 1047.16,86.8582 1038,80.5C 1031.99,70.5262 1034.15,62.8595 1044.5,57.5 Z"/></g>
<g><path style="opacity:1" fill="#4fad84" d="M 936.5,59.5 C 951.219,58.6146 956.719,65.2813 953,79.5C 944.854,87.7683 937.187,87.435 930,78.5C 927.064,70.3801 929.231,64.0467 936.5,59.5 Z"/></g>
<g><path style="opacity:1" fill="#4fad84" d="M 990.5,59.5 C 1005.22,58.6146 1010.72,65.2813 1007,79.5C 998.854,87.7683 991.187,87.435 984,78.5C 981.064,70.3801 983.231,64.0467 990.5,59.5 Z"/></g>
<g><path style="opacity:1" fill="#f3f2da" d="M 40.5,348.5 C 40.5,346.5 40.5,344.5 40.5,342.5C 50.5737,339.703 58.7403,334.036 65,325.5C 99.6667,283.5 134.333,241.5 169,199.5C 182.944,182.137 182.944,164.804 169,147.5C 159.333,136.167 149.667,124.833 140,113.5C 139.506,111.866 139.34,110.199 139.5,108.5C 141.467,108.261 143.301,108.594 145,109.5C 157.38,124.211 169.38,139.211 181,154.5C 186.584,166.009 186.917,177.676 182,189.5C 177.331,198.502 171.497,206.669 164.5,214C 240.701,238.067 317.034,261.733 393.5,285C 401,287.167 405.833,292 408,299.5C 410.509,363.523 422.842,425.523 445,485.5C 454.732,510.512 467.732,533.512 484,554.5C 486.356,563.279 483.189,568.612 474.5,570.5C 446.655,558.121 417.655,549.621 387.5,545C 330.242,537.846 273.242,539.513 216.5,550C 209.315,551.718 202.982,550.218 197.5,545.5C 155.081,472.997 112.914,400.33 71,327.5C 63.4141,338.253 53.2474,345.253 40.5,348.5 Z"/></g>
<g><path style="opacity:1" fill="#f8f5dc" d="M 1203.5,127.5 C 1203.5,129.167 1203.5,130.833 1203.5,132.5C 877.167,132.5 550.833,132.5 224.5,132.5C 224.5,130.833 224.5,129.167 224.5,127.5C 550.833,127.5 877.167,127.5 1203.5,127.5 Z"/></g>
<g><path style="opacity:1" fill="#b7d9bb" d="M 1203.5,127.5 C 1204.46,129.265 1204.79,131.265 1204.5,133.5C 877.666,133.833 551,133.5 224.5,132.5C 550.833,132.5 877.167,132.5 1203.5,132.5C 1203.5,130.833 1203.5,129.167 1203.5,127.5 Z"/></g>
<g><path style="opacity:1" fill="#4cac83" d="M 159.5,219.5 C 238.178,243.559 316.845,267.726 395.5,292C 398.011,294.179 400.178,296.679 402,299.5C 404.849,363.745 417.182,426.079 439,486.5C 448.915,511.674 461.915,535.007 478,556.5C 478.667,557.5 478.667,558.5 478,559.5C 429.33,519.659 380.83,479.659 332.5,439.5C 341.747,422.025 338.747,407.192 323.5,395C 302.584,386.081 287.417,391.914 278,412.5C 274.756,431.852 282.256,445.018 300.5,452C 310.827,453.538 319.993,451.038 328,444.5C 376.167,484 424.333,523.5 472.5,563C 431.37,545.859 388.37,536.526 343.5,535C 299.157,533.501 255.157,536.667 211.5,544.5C 206.646,545.156 202.813,543.489 200,539.5C 158.5,467.167 117,394.833 75.5,322.5C 103.523,288.148 131.523,253.814 159.5,219.5 Z"/></g>
<g><path style="opacity:1" fill="#131514" d="M 653.5,314.5 C 661.833,314.5 670.167,314.5 678.5,314.5C 678.5,315.833 678.5,317.167 678.5,318.5C 675.956,318.104 673.789,318.771 672,320.5C 671.5,326.825 671.334,333.158 671.5,339.5C 679.5,339.5 687.5,339.5 695.5,339.5C 695.666,333.491 695.499,327.491 695,321.5C 693.005,319.253 690.505,318.253 687.5,318.5C 687.5,317.167 687.5,315.833 687.5,314.5C 695.833,314.5 704.167,314.5 712.5,314.5C 712.5,315.833 712.5,317.167 712.5,318.5C 710.064,318.317 707.897,318.984 706,320.5C 705.333,334.833 705.333,349.167 706,363.5C 707.465,365.915 709.632,366.915 712.5,366.5C 712.5,367.833 712.5,369.167 712.5,370.5C 704.167,370.5 695.833,370.5 687.5,370.5C 687.5,369.167 687.5,367.833 687.5,366.5C 690.365,366.945 692.865,366.278 695,364.5C 695.5,357.508 695.666,350.508 695.5,343.5C 687.5,343.5 679.5,343.5 671.5,343.5C 671.334,350.508 671.5,357.508 672,364.5C 673.897,366.016 676.064,366.683 678.5,366.5C 678.5,367.833 678.5,369.167 678.5,370.5C 670.167,370.5 661.833,370.5 653.5,370.5C 653.5,369.167 653.5,367.833 653.5,366.5C 656.044,366.896 658.211,366.229 660,364.5C 660.667,349.833 660.667,335.167 660,320.5C 658.103,318.984 655.936,318.317 653.5,318.5C 653.5,317.167 653.5,315.833 653.5,314.5 Z"/></g>
<g><path style="opacity:1" fill="#131514" d="M 714.5,314.5 C 723.167,314.5 731.833,314.5 740.5,314.5C 740.5,315.833 740.5,317.167 740.5,318.5C 738.473,318.338 736.473,318.505 734.5,319C 734.043,319.414 733.709,319.914 733.5,320.5C 736.914,326.997 740.581,333.33 744.5,339.5C 748.67,333.832 752.336,327.832 755.5,321.5C 755.392,320.558 755.059,319.725 754.5,319C 752.527,318.505 750.527,318.338 748.5,318.5C 748.5,317.167 748.5,315.833 748.5,314.5C 755.5,314.5 762.5,314.5 769.5,314.5C 761.165,324.071 753.998,334.738 748,346.5C 747.333,352.5 747.333,358.5 748,364.5C 750.301,365.867 752.801,366.534 755.5,366.5C 755.5,367.833 755.5,369.167 755.5,370.5C 746.5,370.5 737.5,370.5 728.5,370.5C 728.5,369.167 728.5,367.833 728.5,366.5C 731.365,366.945 733.865,366.278 736,364.5C 736.667,358.5 736.667,352.5 736,346.5C 731.601,338.037 726.934,329.704 722,321.5C 720.005,319.253 717.505,318.253 714.5,318.5C 714.5,317.167 714.5,315.833 714.5,314.5 Z"/></g>
<g><path style="opacity:1" fill="#131615" d="M 772.5,314.5 C 782.839,314.334 793.172,314.5 803.5,315C 813.612,316.073 817.779,321.573 816,331.5C 813.708,335.788 810.208,338.622 805.5,340C 818.394,343.528 822.227,351.362 817,363.5C 813.748,367.366 809.581,369.533 804.5,370C 793.839,370.5 783.172,370.667 772.5,370.5C 772.5,369.167 772.5,367.833 772.5,366.5C 775.044,366.896 777.211,366.229 779,364.5C 779.667,349.833 779.667,335.167 779,320.5C 777.103,318.984 774.936,318.317 772.5,318.5C 772.5,317.167 772.5,315.833 772.5,314.5 Z"/></g>
<g><path style="opacity:1" fill="#131614" d="M 826.5,314.5 C 836.839,314.334 847.172,314.5 857.5,315C 868.502,316.344 873.002,322.51 871,333.5C 869.833,335.333 868.667,337.167 867.5,339C 864.667,340.488 862.001,342.155 859.5,344C 864.101,350.939 869.101,357.605 874.5,364C 876.769,366.023 879.436,366.856 882.5,366.5C 882.5,367.833 882.5,369.167 882.5,370.5C 876.824,370.666 871.157,370.499 865.5,370C 860.201,361.901 854.534,354.068 848.5,346.5C 847.311,345.571 845.978,345.238 844.5,345.5C 844.334,351.842 844.5,358.175 845,364.5C 846.789,366.229 848.956,366.896 851.5,366.5C 851.5,367.833 851.5,369.167 851.5,370.5C 843.167,370.5 834.833,370.5 826.5,370.5C 826.5,369.167 826.5,367.833 826.5,366.5C 829.044,366.896 831.211,366.229 833,364.5C 833.667,349.833 833.667,335.167 833,320.5C 831.103,318.984 828.936,318.317 826.5,318.5C 826.5,317.167 826.5,315.833 826.5,314.5 Z"/></g>
<g><path style="opacity:1" fill="#121212" d="M 883.5,314.5 C 892.5,314.5 901.5,314.5 910.5,314.5C 910.5,315.833 910.5,317.167 910.5,318.5C 907.728,318.22 905.228,318.887 903,320.5C 902.333,335.167 902.333,349.833 903,364.5C 905.228,366.113 907.728,366.78 910.5,366.5C 910.5,367.833 910.5,369.167 910.5,370.5C 901.5,370.5 892.5,370.5 883.5,370.5C 883.5,369.167 883.5,367.833 883.5,366.5C 887.013,367.124 889.847,366.124 892,363.5C 892.667,349.5 892.667,335.5 892,321.5C 889.581,319.415 886.747,318.415 883.5,318.5C 883.5,317.167 883.5,315.833 883.5,314.5 Z"/></g>
<g><path style="opacity:1" fill="#141615" d="M 918.5,314.5 C 928.506,314.334 938.506,314.5 948.5,315C 969.32,319.184 977.153,331.684 972,352.5C 967.517,363.295 959.35,369.128 947.5,370C 937.839,370.5 928.172,370.666 918.5,370.5C 918.5,369.167 918.5,367.833 918.5,366.5C 921.044,366.896 923.211,366.229 925,364.5C 925.667,349.833 925.667,335.167 925,320.5C 923.103,318.984 920.936,318.317 918.5,318.5C 918.5,317.167 918.5,315.833 918.5,314.5 Z"/></g>
<g><path style="opacity:1" fill="#121312" d="M 998.5,314.5 C 1004.51,314.334 1010.51,314.501 1016.5,315C 1026,327.833 1035.5,340.667 1045,353.5C 1045.67,343.5 1045.67,333.5 1045,323.5C 1042.96,319.864 1039.79,318.198 1035.5,318.5C 1035.5,317.167 1035.5,315.833 1035.5,314.5C 1043.83,314.5 1052.17,314.5 1060.5,314.5C 1060.5,315.833 1060.5,317.167 1060.5,318.5C 1056.79,318.225 1053.96,319.558 1052,322.5C 1051.5,338.83 1051.33,355.163 1051.5,371.5C 1049.21,371.756 1047.04,371.423 1045,370.5C 1035.24,356.656 1025.24,342.989 1015,329.5C 1014.33,340.167 1014.33,350.833 1015,361.5C 1017.04,365.136 1020.21,366.802 1024.5,366.5C 1024.5,367.833 1024.5,369.167 1024.5,370.5C 1016.17,370.5 1007.83,370.5 999.5,370.5C 999.5,369.167 999.5,367.833 999.5,366.5C 1002.94,366.411 1005.77,365.078 1008,362.5C 1008.67,349.833 1008.67,337.167 1008,324.5C 1006.19,320.392 1003.02,318.392 998.5,318.5C 998.5,317.167 998.5,315.833 998.5,314.5 Z"/></g>
<g><path style="opacity:1" fill="#141615" d="M 1065.5,314.5 C 1080.5,314.5 1095.5,314.5 1110.5,314.5C 1110.5,319.5 1110.5,324.5 1110.5,329.5C 1108.71,329.785 1107.05,329.452 1105.5,328.5C 1101.29,318.949 1093.95,315.616 1083.5,318.5C 1083.5,325.5 1083.5,332.5 1083.5,339.5C 1090.88,341.431 1095.55,338.764 1097.5,331.5C 1098.69,330.571 1100.02,330.238 1101.5,330.5C 1101.5,338.167 1101.5,345.833 1101.5,353.5C 1097.65,353.511 1095.81,351.511 1096,347.5C 1092.7,343.835 1088.54,342.502 1083.5,343.5C 1083.33,350.508 1083.5,357.508 1084,364.5C 1085.9,366.016 1088.06,366.683 1090.5,366.5C 1090.5,367.833 1090.5,369.167 1090.5,370.5C 1082.17,370.5 1073.83,370.5 1065.5,370.5C 1065.5,369.167 1065.5,367.833 1065.5,366.5C 1068.04,366.896 1070.21,366.229 1072,364.5C 1072.67,349.833 1072.67,335.167 1072,320.5C 1070.1,318.984 1067.94,318.317 1065.5,318.5C 1065.5,317.167 1065.5,315.833 1065.5,314.5 Z"/></g>
<g><path style="opacity:1" fill="#121212" d="M 1112.5,314.5 C 1129.17,314.5 1145.83,314.5 1162.5,314.5C 1162.5,319.833 1162.5,325.167 1162.5,330.5C 1160.83,330.5 1159.17,330.5 1157.5,330.5C 1155.99,321.983 1150.99,317.983 1142.5,318.5C 1142.33,333.504 1142.5,348.504 1143,363.5C 1145.3,365.93 1148.14,366.93 1151.5,366.5C 1151.5,367.833 1151.5,369.167 1151.5,370.5C 1142.17,370.5 1132.83,370.5 1123.5,370.5C 1123.5,369.167 1123.5,367.833 1123.5,366.5C 1126.97,367.125 1129.8,366.125 1132,363.5C 1132.5,348.504 1132.67,333.504 1132.5,318.5C 1129.81,318.336 1127.15,318.503 1124.5,319C 1120.85,321.958 1118.19,325.625 1116.5,330C 1115.21,330.49 1113.87,330.657 1112.5,330.5C 1112.5,325.167 1112.5,319.833 1112.5,314.5 Z"/></g>
<g><path style="opacity:1" fill="#4aa981" d="M 790.5,318.5 C 801.715,316.879 806.215,321.546 804,332.5C 801.09,337.863 796.59,339.863 790.5,338.5C 790.5,331.833 790.5,325.167 790.5,318.5 Z"/></g>
<g><path style="opacity:1" fill="#4aa980" d="M 844.5,318.5 C 856.489,317.323 861.322,322.656 859,334.5C 855.706,339.896 850.872,342.23 844.5,341.5C 844.5,333.833 844.5,326.167 844.5,318.5 Z"/></g>
<g><path style="opacity:1" fill="#4baa81" d="M 936.5,318.5 C 949.004,317.167 957.17,322.501 961,334.5C 961.884,341.582 961.551,348.582 960,355.5C 954.752,366.026 947.085,368.693 937,363.5C 936.5,348.504 936.333,333.504 936.5,318.5 Z"/></g>
<g><path style="opacity:1" fill="#4aa980" d="M 790.5,342.5 C 803.374,341.205 808.874,346.872 807,359.5C 803.303,366.547 797.97,368.214 791,364.5C 790.5,357.174 790.334,349.841 790.5,342.5 Z"/></g>
</svg>
